<?xml version="1.0" encoding="UTF-8"?>
<svg version="1.1" xmlns="http://www.w3.org/2000/svg" width="360" height="360">
<path d="M0 0 C118.8 0 237.6 0 360 0 C360 118.8 360 237.6 360 360 C241.2 360 122.4 360 0 360 C0 241.2 0 122.4 0 0 Z " fill="#FAF9F9" transform="translate(0,0)"/>
<path d="M0 0 C4.95 0 9.9 0 15 0 C15 4.95 15 9.9 15 15 C19.95 15 24.9 15 30 15 C30 19.95 30 24.9 30 30 C34.95 30 39.9 30 45 30 C45 34.95 45 39.9 45 45 C49.95 45 54.9 45 60 45 C60 40.05 60 35.1 60 30 C61.66289062 30.08701172 61.66289062 30.08701172 63.359375 30.17578125 C64.82287452 30.22268829 66.28641963 30.26818745 67.75 30.3125 C68.47960937 30.35439453 69.20921875 30.39628906 69.9609375 30.43945312 C72.40735294 30.54773084 72.40735294 30.54773084 76 30 C78.29780481 27.76188148 78.29780481 27.76188148 80 25 C87.73191384 18.65387306 95.09404932 14.30166705 105.296875 14.6640625 C112.83533382 15.60092299 117.43306075 19.74637118 122.1796875 25.4609375 C133.20028293 40.83301267 133.77150981 60.7406987 130.96972656 78.78344727 C127.33643473 99.31230151 118.09114545 121.85964578 100.625 134.375 C93.98139 138.47303435 86.99691245 140.94028465 79.15625 139.62890625 C70.25552931 137.03286272 64.06247587 129.79995818 59.5625 122 C59.046875 121.01 58.53125 120.02 58 119 C58 119.33 58 119.66 58 120 C53.71 120 49.42 120 45 120 C45 124.95 45 129.9 45 135 C49.95 135 54.9 135 60 135 C60 139.95 60 144.9 60 150 C64.95 150 69.9 150 75 150 C75.09765625 160.83984375 75.09765625 160.83984375 75 164 C74.67 164.33 74.34 164.66 74 165 C74.65742188 165.44085938 75.31484375 165.88171875 75.9921875 166.3359375 C92.27633613 177.85399385 105.5459131 192.77900919 117 209 C117.43715332 209.6084375 117.87430664 210.216875 118.32470703 210.84375 C130.25261601 227.53458696 139.65289657 245.87740204 147 265 C147.25894043 265.67063477 147.51788086 266.34126953 147.78466797 267.03222656 C153.92084562 283.0968284 159.3842204 303.79017044 152.453125 320.41015625 C149.70723297 325.30404447 145.99708585 329.10673457 142 333 C141.3090625 333.7115625 140.618125 334.423125 139.90625 335.15625 C130.45178141 344.32849565 118.10473946 349.79589709 105 350.4375 C89.41524869 350.09908826 74.44469913 342.02700565 60.40332031 335.95214844 C51.48357522 332.41832013 43.29361254 334.1043521 34.3125 336.625 C33.31645752 336.89352783 32.32041504 337.16205566 31.29418945 337.4387207 C26.26657996 338.79930044 21.2534013 340.20932092 16.2421875 341.62890625 C-8.88904613 348.71641474 -35.80656039 354.71875686 -60.10546875 341.7890625 C-68.4703525 336.61886445 -74.77647598 330.43068189 -78 321 C-84.75791698 287.91712538 -64.22372248 251.82383009 -47 225 C-51.29 225 -55.58 225 -60 225 C-60 220.05 -60 215.1 -60 210 C-64.95 210 -69.9 210 -75 210 C-75 205.05 -75 200.1 -75 195 C-79.95 195 -84.9 195 -90 195 C-90 190.05 -90 185.1 -90 180 C-94.95 180 -99.9 180 -105 180 C-105 175.05 -105 170.1 -105 165 C-101.37 165 -97.74 165 -94 165 C-94.680625 162.4940625 -94.680625 162.4940625 -95.375 159.9375 C-95.64828125 158.93074219 -95.9215625 157.92398438 -96.203125 156.88671875 C-96.81597891 154.66662541 -97.46320068 152.45599774 -98.125 150.25 C-102.16825935 135.23217955 -101.12280319 118.42392981 -93.6953125 104.69921875 C-89.34662316 97.77538387 -83.95979647 93.2088762 -76 91 C-67.56952165 89.67462496 -59.52566856 91.97587109 -52.48046875 96.68359375 C-50.26021493 98.39572978 -48.12149094 100.16761003 -46 102 C-44.989375 102.804375 -43.97875 103.60875 -42.9375 104.4375 C-42.298125 104.953125 -41.65875 105.46875 -41 106 C-41 105.67 -41 105.34 -41 105 C-37.37 105 -33.74 105 -30 105 C-30 109.95 -30 114.9 -30 120 C-28.700625 120 -27.40125 120 -26.0625 120 C-24.375 120 -22.6875 120 -21 120 C-21.37511719 119.319375 -21.75023438 118.63875 -22.13671875 117.9375 C-33.67866121 96.074677 -38.29763082 69.24657054 -31.97265625 45.03515625 C-27.70803641 31.72748712 -22.38251652 22.06131288 -10 15 C-7.23547967 13.61773984 -4.9538637 13.90474613 -1.875 13.9375 C-0.77929688 13.94652344 0.31640625 13.95554687 1.4453125 13.96484375 C2.70988281 13.98224609 2.70988281 13.98224609 4 14 C2.68 13.67 1.36 13.34 0 13 C0 8.71 0 4.42 0 0 Z " fill="#D11001" transform="translate(135,0)"/>
<path d="M0 0 C69.3 0 138.6 0 210 0 C210 84.15 210 168.3 210 255 C205.05 255 200.1 255 195 255 C195 250.05 195 245.1 195 240 C190.05 240 185.1 240 180 240 C180 235.05 180 230.1 180 225 C175.05 225 170.1 225 165 225 C165 220.05 165 215.1 165 210 C160.05 210 155.1 210 150 210 C150 206.04 150 202.08 150 198 C148.39125 199.093125 146.7825 200.18625 145.125 201.3125 C137.56774378 206.09876228 129.10785317 209.67287099 120 208 C114.40420044 205.88900975 109.45678286 203.01110457 105 199 C105 202.63 105 206.26 105 210 C109.95 210 114.9 210 120 210 C120 214.95 120 219.9 120 225 C124.95 225 129.9 225 135 225 C135 229.95 135 234.9 135 240 C139.95 240 144.9 240 150 240 C150 244.95 150 249.9 150 255 C145.05 255 140.1 255 135 255 C135 259.62 135 264.24 135 269 C134.34 269.33 133.68 269.66 133 270 C132.74943848 269.37246826 132.49887695 268.74493652 132.24072266 268.09838867 C122.23984029 243.20050034 110.48027997 221.18893139 94 200 C93.34 199.13375 92.68 198.2675 92 197.375 C82.00875592 184.65887117 70.37406925 173.11868358 57 164 C57.66 163.67 58.32 163.34 59 163 C59.46954261 159.95418731 59.46954261 159.95418731 59.625 156.4375 C59.810625 153.2509375 59.810625 153.2509375 60 150 C55.05 150 50.1 150 45 150 C45 145.05 45 140.1 45 135 C40.05 135 35.1 135 30 135 C30 130.05 30 125.1 30 120 C35.94 119.505 35.94 119.505 42 119 C42.495 117.515 42.495 117.515 43 116 C43.4125 116.85722656 43.825 117.71445313 44.25 118.59765625 C48.57074467 127.15234492 52.90720588 133.95070145 61.9375 138 C68.84778867 140.17296187 75.40604344 138.37569877 81.74609375 135.27734375 C97.70395312 126.23363489 106.99061355 108.29591271 112.19140625 91.16796875 C117.67692941 69.67637801 118.62960438 48.17146407 107.96484375 28.08203125 C104.17889133 22.14342994 99.69801406 18.23605932 93 16 C83.33635793 14.41229261 75.86085479 17.95047238 68.015625 23.37109375 C65.81933323 25.11616716 64.17407223 26.66973967 62.859375 29.1640625 C61 31 61 31 57.20703125 31.171875 C55.74030989 31.05241353 54.27524827 30.91096618 52.8125 30.75 C51.68811523 30.65138672 51.68811523 30.65138672 50.54101562 30.55078125 C48.69224399 30.38592263 46.84579227 30.19541184 45 30 C45 34.95 45 39.9 45 45 C40.05 45 35.1 45 30 45 C30 40.05 30 35.1 30 30 C25.05 30 20.1 30 15 30 C15 25.05 15 20.1 15 15 C10.05 15 5.1 15 0 15 C0 10.05 0 5.1 0 0 Z " fill="#FBFAF9" transform="translate(150,0)"/>
<path d="M0 0 C4.95 0 9.9 0 15 0 C15 4.95 15 9.9 15 15 C19.95 15 24.9 15 30 15 C30 19.95 30 24.9 30 30 C34.95 30 39.9 30 45 30 C45 34.95 45 39.9 45 45 C49.95 45 54.9 45 60 45 C60 40.05 60 35.1 60 30 C61.66289062 30.08701172 61.66289062 30.08701172 63.359375 30.17578125 C64.82287452 30.22268829 66.28641963 30.26818745 67.75 30.3125 C68.47960937 30.35439453 69.20921875 30.39628906 69.9609375 30.43945312 C72.40735294 30.54773084 72.40735294 30.54773084 76 30 C78.29780481 27.76188148 78.29780481 27.76188148 80 25 C87.73191384 18.65387306 95.09404932 14.30166705 105.296875 14.6640625 C112.83533382 15.60092299 117.43306075 19.74637118 122.1796875 25.4609375 C133.20028293 40.83301267 133.77150981 60.7406987 130.96972656 78.78344727 C127.33643473 99.31230151 118.09114545 121.85964578 100.625 134.375 C93.98139 138.47303435 86.99691245 140.94028465 79.15625 139.62890625 C70.25552931 137.03286272 64.06247587 129.79995818 59.5625 122 C59.046875 121.01 58.53125 120.02 58 119 C58 119.33 58 119.66 58 120 C53.71 120 49.42 120 45 120 C45 124.95 45 129.9 45 135 C49.95 135 54.9 135 60 135 C60 139.95 60 144.9 60 150 C64.95 150 69.9 150 75 150 C75 154.62 75 159.24 75 164 C69.90552795 163.15092133 67.4142019 162.40132533 63.0625 160.0625 C52.11016127 154.47238341 41.57388398 153.15280792 29.5625 156.5 C2.70909078 165.8530685 -18.66468006 187.36327793 -35 210 C-35.45906738 210.63550781 -35.91813477 211.27101562 -36.39111328 211.92578125 C-38.21631364 214.4619281 -40.0373635 217.00032517 -41.83007812 219.55957031 C-43.44937373 221.86996296 -45.00027879 224.00027879 -47 226 C-51.36805319 225.96631321 -55.64775705 225.42669049 -60 225 C-60 220.05 -60 215.1 -60 210 C-64.95 210 -69.9 210 -75 210 C-75 205.05 -75 200.1 -75 195 C-79.95 195 -84.9 195 -90 195 C-90 190.05 -90 185.1 -90 180 C-94.95 180 -99.9 180 -105 180 C-105 175.05 -105 170.1 -105 165 C-101.37 165 -97.74 165 -94 165 C-94.680625 162.4940625 -94.680625 162.4940625 -95.375 159.9375 C-95.64828125 158.93074219 -95.9215625 157.92398438 -96.203125 156.88671875 C-96.81597891 154.66662541 -97.46320068 152.45599774 -98.125 150.25 C-102.16825935 135.23217955 -101.12280319 118.42392981 -93.6953125 104.69921875 C-89.34662316 97.77538387 -83.95979647 93.2088762 -76 91 C-67.56952165 89.67462496 -59.52566856 91.97587109 -52.48046875 96.68359375 C-50.26021493 98.39572978 -48.12149094 100.16761003 -46 102 C-44.989375 102.804375 -43.97875 103.60875 -42.9375 104.4375 C-42.298125 104.953125 -41.65875 105.46875 -41 106 C-41 105.67 -41 105.34 -41 105 C-37.37 105 -33.74 105 -30 105 C-30 109.95 -30 114.9 -30 120 C-28.700625 120 -27.40125 120 -26.0625 120 C-24.375 120 -22.6875 120 -21 120 C-21.37511719 119.319375 -21.75023438 118.63875 -22.13671875 117.9375 C-33.67866121 96.074677 -38.29763082 69.24657054 -31.97265625 45.03515625 C-27.70803641 31.72748712 -22.38251652 22.06131288 -10 15 C-7.23547967 13.61773984 -4.9538637 13.90474613 -1.875 13.9375 C-0.77929688 13.94652344 0.31640625 13.95554687 1.4453125 13.96484375 C2.70988281 13.98224609 2.70988281 13.98224609 4 14 C2.68 13.67 1.36 13.34 0 13 C0 8.71 0 4.42 0 0 Z " fill="#F4F1F1" transform="translate(135,0)"/>
<path d="M0 0 C69.3 0 138.6 0 210 0 C210 34.65 210 69.3 210 105 C205.05 105 200.1 105 195 105 C195 100.05 195 95.1 195 90 C190.05 90 185.1 90 180 90 C180 85.05 180 80.1 180 75 C175.05 75 170.1 75 165 75 C165 70.05 165 65.1 165 60 C160.05 60 155.1 60 150 60 C150 55.05 150 50.1 150 45 C145.05 45 140.1 45 135 45 C135 40.05 135 35.1 135 30 C130.05 30 125.1 30 120 30 C120 25.05 120 20.1 120 15 C118.17855469 15.0721875 116.35710937 15.144375 114.48046875 15.21875 C112.04948343 15.31261044 109.6184936 15.40635423 107.1875 15.5 C105.99189453 15.54769531 104.79628906 15.59539063 103.56445312 15.64453125 C98.03074445 15.8556264 92.54435495 16.00490607 87.0078125 15.86328125 C78.11705561 15.82575029 70.24077596 20.91924393 64 27 C63.62359375 27.71414062 63.2471875 28.42828125 62.859375 29.1640625 C61 31 61 31 57.20703125 31.171875 C55.74030989 31.05241353 54.27524827 30.91096618 52.8125 30.75 C51.68811523 30.65138672 51.68811523 30.65138672 50.54101562 30.55078125 C48.69224399 30.38592263 46.84579227 30.19541184 45 30 C45 34.95 45 39.9 45 45 C40.05 45 35.1 45 30 45 C30 40.05 30 35.1 30 30 C25.05 30 20.1 30 15 30 C15 25.05 15 20.1 15 15 C10.05 15 5.1 15 0 15 C0 10.05 0 5.1 0 0 Z " fill="#F7F6F6" transform="translate(150,0)"/>
<path d="M0 0 C9.69016516 5.67907221 14.6182125 15.36028217 17.78125 25.7421875 C23.94165093 50.44083195 17.91774477 75.89311533 6.01953125 97.875 C-1.08368895 109.5782461 -10.06815923 119.6254955 -23.7109375 123.15234375 C-30.41275311 124.26226589 -35.71680667 123.00912199 -41.27734375 119.12890625 C-50.54756698 111.52694405 -55.3860206 101.29360166 -57.1875 89.5625 C-59.25384345 64.16413849 -55.26548796 37.89639398 -39.375 17.1875 C-38.32156213 15.9712581 -37.26072625 14.76131655 -36.1875 13.5625 C-35.589375 12.69625 -34.99125 11.83 -34.375 10.9375 C-25.75527296 1.57893922 -12.58859222 -5.40219115 0 0 Z " fill="#D11001" transform="translate(247.1875,16.4375)"/>
<path d="M0 0 C13.27583596 4.56416044 20.96830507 14.84999613 27.25 26.9375 C30.04201736 32.81662599 32.21402034 38.74510235 34 45 C34.45052734 46.46179687 34.45052734 46.46179687 34.91015625 47.953125 C40.22655177 68.03179087 38.84879825 92.55263955 29 111 C24.99520964 117.14468907 20.23185789 123.68902474 13 126 C4.47646628 127.23128315 -2.68299011 126.89719931 -9.8046875 121.80859375 C-10.89136719 120.91333984 -10.89136719 120.91333984 -12 120 C-12.68320313 119.45472656 -13.36640625 118.90945312 -14.0703125 118.34765625 C-24.57009454 108.93902803 -30.48000248 95.36218668 -34 82 C-34.31839844 80.7934375 -34.63679688 79.586875 -34.96484375 78.34375 C-39.72127766 57.12610934 -39.0962713 32.38120019 -27.4375 13.46484375 C-20.46733566 3.80019459 -11.9381896 -1.37451342 0 0 Z " fill="#D11001" transform="translate(138,14)"/>
<path d="M0 0 C9.05975903 5.26286973 13.28181565 13.56368117 16.31640625 23.375 C20.99395678 43.26276729 15.37195002 63.89021126 5.6796875 81.32421875 C-1.96219375 93.40581644 -11.83901277 103.7030904 -25.93359375 107.42578125 C-33.2567367 108.92239861 -38.49288541 108.20891279 -45.08203125 104.53125 C-53.93786114 98.53924569 -57.8413745 89.33864244 -60.05078125 79.09375 C-62.65891333 57.80717702 -57.93061587 36.59142897 -45.4375 18.9375 C-42.59627341 15.4366102 -39.59695718 12.15267953 -36.4375 8.9375 C-35.57318359 8.05384766 -35.57318359 8.05384766 -34.69140625 7.15234375 C-25.19148911 -1.75525242 -12.21737096 -5.52166465 0 0 Z " fill="#D10F01" transform="translate(307.4375,100.0625)"/>
<path d="M0 0 C16.29539907 10.17803243 25.99097424 28.00585798 30.55981445 46.23339844 C34.17127255 62.47607263 34.01817581 80.12308708 25.42578125 94.6640625 C21.67175982 100.03695098 17.34571251 104.07705682 11 106 C-0.8405043 107.72370163 -9.12079644 104.96154947 -18.6484375 98.08984375 C-28.08526123 90.32261191 -34.696444 79.35492241 -39 68 C-39.34675781 67.15179688 -39.69351563 66.30359375 -40.05078125 65.4296875 C-46.05243422 50.10910429 -47.7986142 31.43347002 -41.77734375 15.83203125 C-37.63816025 6.94658401 -32.6998567 0.30337038 -23.37890625 -3.33984375 C-15.10923892 -5.63471038 -7.55001298 -3.74179529 0 0 Z " fill="#D11001" transform="translate(80,95)"/>
<path d="M0 0 C3.96 0 7.92 0 12 0 C11.56258099 5.16154429 10.79483602 9.87462531 9.4375 14.875 C5.65078918 30.78664695 7.39470669 46.57616786 15 61 C15 65.66666667 15 70.33333333 15 75 C19.95 75 24.9 75 30 75 C30 79.95 30 84.9 30 90 C34.95 90 39.9 90 45 90 C45 94.95 45 99.9 45 105 C49.95 105 54.9 105 60 105 C60 109.95 60 114.9 60 120 C55.05 120 50.1 120 45 120 C45 124.62 45 129.24 45 134 C44.34 134.33 43.68 134.66 43 135 C42.62415771 134.05870239 42.62415771 134.05870239 42.24072266 133.09838867 C32.23984029 108.20050034 20.48027997 86.18893139 4 65 C3.34 64.13375 2.68 63.2675 2 62.375 C-5.52272549 52.80062211 -14.23222576 43.26074254 -23.859375 35.77734375 C-26 34 -26 34 -28 30 C-23.71 30 -19.42 30 -15 30 C-15 25.05 -15 20.1 -15 15 C-10.05 15 -5.1 15 0 15 C0 10.05 0 5.1 0 0 Z " fill="#F6F3F2" transform="translate(240,135)"/>
<path d="M0 0 C3.78787879 1.51515152 3.78787879 1.51515152 4.875 4 C5.9199192 6.34687631 5.9199192 6.34687631 9.125 7.25 C10.07375 7.4975 11.0225 7.745 12 8 C12.66 7.34 13.32 6.68 14 6 C17.125 5.875 17.125 5.875 20 6 C20.82200425 12.24723226 17.92551394 16.71317837 15 22 C14.34 22 13.68 22 13 22 C13 22.66 13 23.32 13 24 C15.45993028 23.7186941 17.91740248 23.42547269 20.375 23.125 C21.07367188 23.04636719 21.77234375 22.96773437 22.4921875 22.88671875 C26.69072159 22.44779555 26.69072159 22.44779555 30 20 C32.625 20.375 32.625 20.375 35 21 C34.93489583 22.98567708 34.86979167 24.97135417 34.8046875 26.95703125 C34.86745538 29.31359719 34.86745538 29.31359719 37 32 C39.05318843 39.39147835 37.89580507 45.12246295 35 52 C34.01 52 33.02 52 32 52 C32 52.99 32 53.98 32 55 C30.35 55 28.7 55 27 55 C27.33 52.03 27.66 49.06 28 46 C26.68 45.67 25.36 45.34 24 45 C23.62488281 45.56589844 23.24976563 46.13179687 22.86328125 46.71484375 C18.63121784 52.78044597 18.63121784 52.78044597 15.125 54 C14.42375 54 13.7225 54 13 54 C13 53.01 13 52.02 13 51 C12.505 50.505 12.505 50.505 12 50 C11.01 52.31 10.02 54.62 9 57 C6.36 57 3.72 57 1 57 C1 54 1 51 1 48 C0.69595322 46.32774271 0.36871088 44.65919896 0 43 C-0.66 43 -1.32 43 -2 43 C-2.495 41.515 -2.495 41.515 -3 40 C-3.66 39.67 -4.32 39.34 -5 39 C-6.52173913 32.91304348 -6.52173913 32.91304348 -4.5 29.375 C-4.005 28.59125 -3.51 27.8075 -3 27 C-3.21481476 24.13580318 -3.94811637 22.11529695 -5.125 19.5 C-6.16274736 16.53500754 -5.98531746 14.95595239 -5 12 C-4.34 11.67 -3.68 11.34 -3 11 C-3.33 10.01 -3.66 9.02 -4 8 C-3.0988845 4.60348774 -2.50320403 2.50320403 0 0 Z " fill="#FDF8F8" transform="translate(159,177)"/>
<path d="M0 0 C5.13657734 5.13657734 6.30218976 10.1843779 6.375 17.3125 C6.35299602 23.56162992 5.6633624 27.85149068 2 33 C-2.50705467 36.49296737 -6.72218655 37.14081418 -12.3125 37.125 C-13.21613281 37.12757813 -14.11976563 37.13015625 -15.05078125 37.1328125 C-18.38523578 36.98265163 -21.69571299 36.472041 -25 36 C-25 23.46 -25 10.92 -25 -2 C-16.28554708 -3.74289058 -8.02812965 -4.15742428 0 0 Z " fill="#FDF8F7" transform="translate(151,258)"/>
<path d="M0 0 C4.39689255 2.40440094 6.25086657 6.41950552 7.79296875 10.98046875 C8.67618963 18.90891661 8.31944069 26.21996389 3.79296875 32.98046875 C0.01689738 36.66444082 -2.65652568 37.90294347 -7.95703125 38.16796875 C-13.253365 38.07060967 -17.64549821 37.54200179 -21.51953125 33.66796875 C-26.12327273 26.33608418 -26.20667282 18.7263077 -24.7421875 10.30859375 C-23.18301197 4.80996289 -20.94509409 2.13917731 -16.20703125 -1.01953125 C-10.49373571 -2.9239631 -5.46425489 -2.25123074 0 0 Z " fill="#FCF7F7" transform="translate(184.20703125,257.01953125)"/>
<path d="M0 0 C6.27 0 12.54 0 19 0 C20.68184793 4.20461983 21.71076752 8.01563451 22.5078125 12.41796875 C22.63815887 13.1164241 22.76850525 13.81487946 22.90280151 14.53450012 C23.17573305 16.00228967 23.4462096 17.47053762 23.71435547 18.93920898 C24.12575472 21.19163213 24.54464284 23.44256327 24.96484375 25.69335938 C25.22960195 27.12231525 25.49393969 28.55134911 25.7578125 29.98046875 C25.94526535 30.99139839 25.94526535 30.99139839 26.13650513 32.02275085 C27 36.76585238 27 36.76585238 27 39 C22.71 39 18.42 39 14 39 C13.67 36.69 13.34 34.38 13 32 C10.03 32.495 10.03 32.495 7 33 C6.34 34.98 5.68 36.96 5 39 C1.04 39 -2.92 39 -7 39 C-4.87386969 25.95181959 -2.69653827 12.94338372 0 0 Z " fill="#EFEEED" transform="translate(97,256)"/>
<path d="M0 0 C0.95648438 0.06703125 1.91296875 0.1340625 2.8984375 0.203125 C6.04545608 0.83433217 8.03756311 1.86416517 10.625 3.75 C13.64902346 8.96383355 14.54710819 13.76654244 13.625 19.75 C12.35305117 23.74364578 10.94129603 26.84739701 7.4375 29.25 C3.44644045 29.9595217 -0.32211664 29.87098159 -4.375 29.75 C-4.375 33.05 -4.375 36.35 -4.375 39.75 C-8.665 39.75 -12.955 39.75 -17.375 39.75 C-17.375 26.88 -17.375 14.01 -17.375 0.75 C-4.79226619 -0.39388489 -4.79226619 -0.39388489 0 0 Z " fill="#EFEEEE" transform="translate(212.375,255.25)"/>
<path d="M0 0 C9.57 0 19.14 0 29 0 C29 3.63 29 7.26 29 11 C26.36 11 23.72 11 21 11 C21 20.24 21 29.48 21 39 C16.71 39 12.42 39 8 39 C8 29.76 8 20.52 8 11 C5.36 11 2.72 11 0 11 C0 7.37 0 3.74 0 0 Z " fill="#FEFCFC" transform="translate(227,256)"/>
<path d="M0 0 C3.63 0.33 7.26 0.66 11 1 C11 5.95 11 10.9 11 16 C15.95 16 20.9 16 26 16 C26 20.95 26 25.9 26 31 C21.05 31 16.1 31 11 31 C11 35.95 11 40.9 11 46 C6.05 46.495 6.05 46.495 1 47 C1.24169922 45.38738281 1.24169922 45.38738281 1.48828125 43.7421875 C2.1761402 38.2076622 2.1840228 32.69546699 2.1875 27.125 C2.19974609 26.10019531 2.21199219 25.07539063 2.22460938 24.01953125 C2.23567326 18.2146789 1.79670347 12.89814901 0.4309082 7.24951172 C0 5 0 5 0 0 Z " fill="#FEFAFA" transform="translate(109,134)"/>
<path d="M0 0 C3.3 0 6.6 0 10 0 C9.67 1.32 9.34 2.64 9 4 C8.34 4 7.68 4 7 4 C7 4.66 7 5.32 7 6 C9.45993028 5.7186941 11.91740248 5.42547269 14.375 5.125 C15.07367188 5.04636719 15.77234375 4.96773437 16.4921875 4.88671875 C20.69072159 4.44779555 20.69072159 4.44779555 24 2 C26.625 2.375 26.625 2.375 29 3 C28.93489583 4.98567708 28.86979167 6.97135417 28.8046875 8.95703125 C28.86745538 11.31359719 28.86745538 11.31359719 31 14 C33.05318843 21.39147835 31.89580507 27.12246295 29 34 C28.01 34 27.02 34 26 34 C26 34.99 26 35.98 26 37 C24.35 37 22.7 37 21 37 C21.33 34.03 21.66 31.06 22 28 C18.14061025 26.65486576 18.14061025 26.65486576 15 28 C15 23.71 15 19.42 15 15 C10.05 15 5.1 15 0 15 C0 10.05 0 5.1 0 0 Z " fill="#FDFAFA" transform="translate(165,195)"/>
<path d="M0 0 C0.99 0.495 0.99 0.495 2 1 C1.67 4.96 1.34 8.92 1 13 C3.31 13 5.62 13 8 13 C8 17.95 8 22.9 8 28 C9.175625 27.814375 10.35125 27.62875 11.5625 27.4375 C15.8274774 26.76408252 18.31864983 27.33123569 23 28 C23 19.09 23 10.18 23 1 C29.1424535 7.1424535 30.28832061 9.8265875 30.375 18.3125 C30.35299602 24.56162992 29.6633624 28.85149068 26 34 C21.47131753 37.50972892 17.24123391 38.14073175 11.625 38.125 C10.70976562 38.12757813 9.79453125 38.13015625 8.8515625 38.1328125 C6 38 6 38 0 37 C0 24.79 0 12.58 0 0 Z " fill="#FDF9F8" transform="translate(127,257)"/>
<path d="M0 0 C3.63 0 7.26 0 11 0 C11 4.95 11 9.9 11 15 C12.8253125 14.87625 12.8253125 14.87625 14.6875 14.75 C17.73282804 14.77137072 18.8601704 14.91814853 21.5625 16.5 C23.5768716 18.56602216 25.4007406 20.66604483 27.25 22.875 C30.46805687 26.67429182 33.9391582 29.20037057 38.1796875 31.7734375 C40 33 40 33 41 35 C41.13677734 38.33736713 41.04283944 41.6585233 41 45 C36.05 45 31.1 45 26 45 C26 40.05 26 35.1 26 30 C22.04 30 18.08 30 14 30 C13.56429687 28.94941406 13.12859375 27.89882812 12.6796875 26.81640625 C9.69733363 19.74784026 6.84637419 13.04163028 2.1640625 6.89453125 C1 5 1 5 0 0 Z " fill="#F0EDEC" transform="translate(94,105)"/>
<path d="M0 0 C-0.33 0.33 -0.66 0.66 -1 1 C-1.33 5.29 -1.66 9.58 -2 14 C-16.85 14 -31.7 14 -47 14 C-47 10.37 -47 6.74 -47 3 C-41.68026832 1.86999164 -36.64657007 2.00200266 -31.25 2.125 C-23.11918765 2.24034591 -15.48347451 1.56712348 -7.51074219 -0.02099609 C-2.16570214 -1.08285107 -2.16570214 -1.08285107 0 0 Z " fill="#F0EEEE" transform="translate(137,346)"/>
<path d="M0 0 C1.125 3.75 1.125 3.75 0 6 C2.97 6 5.94 6 9 6 C9 10.95 9 15.9 9 21 C13.95 21 18.9 21 24 21 C24 18.69 24 16.38 24 14 C27.04759306 19.1732252 27.1815982 25.15427286 28 31 C23.71 31 19.42 31 15 31 C14.67 28.69 14.34 26.38 14 24 C12.02 24.33 10.04 24.66 8 25 C7.34 26.98 6.68 28.96 6 31 C2.04 31 -1.92 31 -6 31 C-5.38006338 27.14495723 -4.75423817 23.29102593 -4.125 19.4375 C-3.95097656 18.35146484 -3.77695313 17.26542969 -3.59765625 16.14648438 C-2.69365528 10.63877477 -1.69469757 5.32073965 0 0 Z " fill="#FBF5F5" transform="translate(96,264)"/>
<path d="M0 0 C0.33 0.66 0.66 1.32 1 2 C4.3 2 7.6 2 11 2 C11 6.95 11 11.9 11 17 C6.05 17 1.1 17 -4 17 C-4 21.95 -4 26.9 -4 32 C-8.95 32 -13.9 32 -19 32 C-19.1953125 25.1640625 -19.1953125 25.1640625 -19 23 C-17 21 -17 21 -14.6875 19.1875 C-8.38896962 14.06078922 -2.61118909 7.83356727 0 0 Z " fill="#F0EDED" transform="translate(169,118)"/>
<path d="M0 0 C4.95 0 9.9 0 15 0 C15.66590256 7.17184707 15.66590256 7.17184707 12.69140625 10.87109375 C11.66721093 11.74895167 10.62295598 12.60380719 9.5625 13.4375 C8.45787017 14.37030944 7.35502388 15.30523474 6.25390625 16.2421875 C5.7036377 16.70077148 5.15336914 17.15935547 4.58642578 17.63183594 C1.50314984 20.29091232 -1.25355829 23.2807154 -4.0625 26.22265625 C-6.87408398 28.80183107 -8.92716726 29.95123488 -12.75 30.125 C-13.4925 30.08375 -14.235 30.0425 -15 30 C-15.33 29.34 -15.66 28.68 -16 28 C-16.66 28.33 -17.32 28.66 -18 29 C-17.71125 28.42378906 -17.4225 27.84757812 -17.125 27.25390625 C-16.41244341 25.82631892 -15.70363441 24.39684971 -15 22.96484375 C-14.67 22.29582031 -14.34 21.62679687 -14 20.9375 C-13.67 20.26589844 -13.34 19.59429687 -13 18.90234375 C-12 17 -12 17 -10 14 C-9.67 14.33 -9.34 14.66 -9 15 C-5.99668982 15.14193337 -3.00782866 15.04236378 0 15 C0 10.05 0 5.1 0 0 Z M-22 31 C-21.34 31.33 -20.68 31.66 -20 32 C-20.99 32 -21.98 32 -23 32 C-22.67 31.67 -22.34 31.34 -22 31 Z " fill="#F0EBEA" transform="translate(120,165)"/>
<path d="M0 0 C6.24593827 -0.72189236 11.11760417 1.84337092 16.6875 4.3125 C17.63689453 4.71662109 18.58628906 5.12074219 19.56445312 5.53710938 C27.62993239 9.04756213 27.62993239 9.04756213 30 12 C30.40199208 15.70368703 30.13187853 19.26344169 30 23 C25.05 23 20.1 23 15 23 C15 18.05 15 13.1 15 8 C10.05 8 5.1 8 0 8 C0 5.36 0 2.72 0 0 Z " fill="#EFEDEC" transform="translate(195,337)"/>
<path d="M0 0 C4.95 0 9.9 0 15 0 C16.48144745 14.41044338 16.48144745 14.41044338 13 19 C12.34 19.66 11.68 20.32 11 21 C8.375 20.625 8.375 20.625 6 20 C6.66 19.01 7.32 18.02 8 17 C6.4 15.2 6.4 15.2 0 15 C0 10.05 0 5.1 0 0 Z " fill="#EFEDED" transform="translate(165,210)"/>
<path d="M0 0 C4.95 0 9.9 0 15 0 C15 4.95 15 9.9 15 15 C10.05 15 5.1 15 0 15 C0.33 16.32 0.66 17.64 1 19 C0.34 18.67 -0.32 18.34 -1 18 C-0.505 9.09 -0.505 9.09 0 0 Z " fill="#FEFEFE" transform="translate(285,255)"/>
<path d="M0 0 C4.95 0 9.9 0 15 0 C15.33 5.28 15.66 10.56 16 16 C10.72 15.67 5.44 15.34 0 15 C0 10.05 0 5.1 0 0 Z " fill="#FEFEFE" transform="translate(195,15)"/>
<path d="M0 0 C4.95 0 9.9 0 15 0 C15 4.95 15 9.9 15 15 C10.05 15 5.1 15 0 15 C0 10.05 0 5.1 0 0 Z " fill="#FFFFFF" transform="translate(345,345)"/>
<path d="M0 0 C4.95 0 9.9 0 15 0 C15 4.95 15 9.9 15 15 C10.05 15 5.1 15 0 15 C0 10.05 0 5.1 0 0 Z " fill="#FFFFFF" transform="translate(315,345)"/>
<path d="M0 0 C4.95 0 9.9 0 15 0 C15 4.95 15 9.9 15 15 C10.05 15 5.1 15 0 15 C0 10.05 0 5.1 0 0 Z " fill="#EFEEEE" transform="translate(300,345)"/>
<path d="M0 0 C4.95 0 9.9 0 15 0 C15 4.95 15 9.9 15 15 C10.05 15 5.1 15 0 15 C0 10.05 0 5.1 0 0 Z " fill="#FFFFFF" transform="translate(285,345)"/>
<path d="M0 0 C4.95 0 9.9 0 15 0 C15 4.95 15 9.9 15 15 C10.05 15 5.1 15 0 15 C0 10.05 0 5.1 0 0 Z " fill="#EFEEEE" transform="translate(270,345)"/>
<path d="M0 0 C4.95 0 9.9 0 15 0 C15 4.95 15 9.9 15 15 C10.05 15 5.1 15 0 15 C0 10.05 0 5.1 0 0 Z " fill="#FFFFFF" transform="translate(195,345)"/>
<path d="M0 0 C4.95 0 9.9 0 15 0 C15 4.95 15 9.9 15 15 C10.05 15 5.1 15 0 15 C0 10.05 0 5.1 0 0 Z " fill="#EFEEEE" transform="translate(180,345)"/>
<path d="M0 0 C4.95 0 9.9 0 15 0 C15 4.95 15 9.9 15 15 C10.05 15 5.1 15 0 15 C0 10.05 0 5.1 0 0 Z " fill="#FFFFFF" transform="translate(165,345)"/>
<path d="M0 0 C4.95 0 9.9 0 15 0 C15 4.95 15 9.9 15 15 C10.05 15 5.1 15 0 15 C0 10.05 0 5.1 0 0 Z " fill="#EFEEEE" transform="translate(150,345)"/>
<path d="M0 0 C4.95 0 9.9 0 15 0 C15 4.95 15 9.9 15 15 C10.05 15 5.1 15 0 15 C0 10.05 0 5.1 0 0 Z " fill="#EFEEEE" transform="translate(60,345)"/>
<path d="M0 0 C4.95 0 9.9 0 15 0 C15 4.95 15 9.9 15 15 C10.05 15 5.1 15 0 15 C0 10.05 0 5.1 0 0 Z " fill="#FFFFFF" transform="translate(45,345)"/>
<path d="M0 0 C4.95 0 9.9 0 15 0 C15 4.95 15 9.9 15 15 C10.05 15 5.1 15 0 15 C0 10.05 0 5.1 0 0 Z " fill="#EFEEEE" transform="translate(30,345)"/>
<path d="M0 0 C4.95 0 9.9 0 15 0 C15 4.95 15 9.9 15 15 C10.05 15 5.1 15 0 15 C0 10.05 0 5.1 0 0 Z " fill="#FFFFFF" transform="translate(15,345)"/>
<path d="M0 0 C4.95 0 9.9 0 15 0 C15 4.95 15 9.9 15 15 C10.05 15 5.1 15 0 15 C0 10.05 0 5.1 0 0 Z " fill="#EFEEEE" transform="translate(0,345)"/>
<path d="M0 0 C4.95 0 9.9 0 15 0 C15 4.95 15 9.9 15 15 C10.05 15 5.1 15 0 15 C0 10.05 0 5.1 0 0 Z " fill="#FFFFFF" transform="translate(330,330)"/>
<path d="M0 0 C4.95 0 9.9 0 15 0 C15 4.95 15 9.9 15 15 C10.05 15 5.1 15 0 15 C0 10.05 0 5.1 0 0 Z " fill="#FFFFFF" transform="translate(300,330)"/>
<path d="M0 0 C4.95 0 9.9 0 15 0 C15 4.95 15 9.9 15 15 C10.05 15 5.1 15 0 15 C0 10.05 0 5.1 0 0 Z " fill="#EFEEEE" transform="translate(285,330)"/>
<path d="M0 0 C4.95 0 9.9 0 15 0 C15 4.95 15 9.9 15 15 C10.05 15 5.1 15 0 15 C0 10.05 0 5.1 0 0 Z " fill="#EFEEEE" transform="translate(45,330)"/>
<path d="M0 0 C4.95 0 9.9 0 15 0 C15 4.95 15 9.9 15 15 C10.05 15 5.1 15 0 15 C0 10.05 0 5.1 0 0 Z " fill="#FFFFFF" transform="translate(30,330)"/>
<path d="M0 0 C4.95 0 9.9 0 15 0 C15 4.95 15 9.9 15 15 C10.05 15 5.1 15 0 15 C0 10.05 0 5.1 0 0 Z " fill="#EFEEEE" transform="translate(15,330)"/>
<path d="M0 0 C4.95 0 9.9 0 15 0 C15 4.95 15 9.9 15 15 C10.05 15 5.1 15 0 15 C0 10.05 0 5.1 0 0 Z " fill="#FFFFFF" transform="translate(0,330)"/>
<path d="M0 0 C4.95 0 9.9 0 15 0 C15 4.95 15 9.9 15 15 C10.05 15 5.1 15 0 15 C0 10.05 0 5.1 0 0 Z " fill="#FFFFFF" transform="translate(345,315)"/>
<path d="M0 0 C4.95 0 9.9 0 15 0 C15 4.95 15 9.9 15 15 C10.05 15 5.1 15 0 15 C0 10.05 0 5.1 0 0 Z " fill="#EFEEEE" transform="translate(330,315)"/>
<path d="M0 0 C4.95 0 9.9 0 15 0 C15 4.95 15 9.9 15 15 C10.05 15 5.1 15 0 15 C0 10.05 0 5.1 0 0 Z " fill="#FFFFFF" transform="translate(315,315)"/>
<path d="M0 0 C4.95 0 9.9 0 15 0 C15 4.95 15 9.9 15 15 C10.05 15 5.1 15 0 15 C0 10.05 0 5.1 0 0 Z " fill="#EFEEEE" transform="translate(30,315)"/>
<path d="M0 0 C4.95 0 9.9 0 15 0 C15 4.95 15 9.9 15 15 C10.05 15 5.1 15 0 15 C0 10.05 0 5.1 0 0 Z " fill="#FFFFFF" transform="translate(15,315)"/>
<path d="M0 0 C4.95 0 9.9 0 15 0 C15 4.95 15 9.9 15 15 C10.05 15 5.1 15 0 15 C0 10.05 0 5.1 0 0 Z " fill="#EFEEEE" transform="translate(0,315)"/>
<path d="M0 0 C4.95 0 9.9 0 15 0 C15 4.95 15 9.9 15 15 C10.05 15 5.1 15 0 15 C0 10.05 0 5.1 0 0 Z " fill="#EFEEEE" transform="translate(345,300)"/>
<path d="M0 0 C4.95 0 9.9 0 15 0 C15 4.95 15 9.9 15 15 C10.05 15 5.1 15 0 15 C0 10.05 0 5.1 0 0 Z " fill="#FFFFFF" transform="translate(330,300)"/>
<path d="M0 0 C4.95 0 9.9 0 15 0 C15 4.95 15 9.9 15 15 C10.05 15 5.1 15 0 15 C0 10.05 0 5.1 0 0 Z " fill="#EFEEEE" transform="translate(315,300)"/>
<path d="M0 0 C4.95 0 9.9 0 15 0 C15 4.95 15 9.9 15 15 C10.05 15 5.1 15 0 15 C0 10.05 0 5.1 0 0 Z " fill="#FFFFFF" transform="translate(300,300)"/>
<path d="M0 0 C4.95 0 9.9 0 15 0 C15 4.95 15 9.9 15 15 C10.05 15 5.1 15 0 15 C0 10.05 0 5.1 0 0 Z " fill="#EFEEEE" transform="translate(15,300)"/>
<path d="M0 0 C4.95 0 9.9 0 15 0 C15 4.95 15 9.9 15 15 C10.05 15 5.1 15 0 15 C0 10.05 0 5.1 0 0 Z " fill="#FFFFFF" transform="translate(0,300)"/>
<path d="M0 0 C4.95 0 9.9 0 15 0 C15 4.95 15 9.9 15 15 C10.05 15 5.1 15 0 15 C0 10.05 0 5.1 0 0 Z " fill="#FFFFFF" transform="translate(345,285)"/>
<path d="M0 0 C4.95 0 9.9 0 15 0 C15 4.95 15 9.9 15 15 C10.05 15 5.1 15 0 15 C0 10.05 0 5.1 0 0 Z " fill="#EFEEEE" transform="translate(330,285)"/>
<path d="M0 0 C4.95 0 9.9 0 15 0 C15 4.95 15 9.9 15 15 C10.05 15 5.1 15 0 15 C0 10.05 0 5.1 0 0 Z " fill="#FFFFFF" transform="translate(315,285)"/>
<path d="M0 0 C4.95 0 9.9 0 15 0 C15 4.95 15 9.9 15 15 C10.05 15 5.1 15 0 15 C0 10.05 0 5.1 0 0 Z " fill="#EFEEEE" transform="translate(30,285)"/>
<path d="M0 0 C4.95 0 9.9 0 15 0 C15 4.95 15 9.9 15 15 C10.05 15 5.1 15 0 15 C0 10.05 0 5.1 0 0 Z " fill="#FFFFFF" transform="translate(15,285)"/>
<path d="M0 0 C4.95 0 9.9 0 15 0 C15 4.95 15 9.9 15 15 C10.05 15 5.1 15 0 15 C0 10.05 0 5.1 0 0 Z " fill="#EFEEEE" transform="translate(0,285)"/>
<path d="M0 0 C4.95 0 9.9 0 15 0 C15 4.95 15 9.9 15 15 C10.05 15 5.1 15 0 15 C0 10.05 0 5.1 0 0 Z " fill="#EFEEEE" transform="translate(345,270)"/>
<path d="M0 0 C4.95 0 9.9 0 15 0 C15 4.95 15 9.9 15 15 C10.05 15 5.1 15 0 15 C0 10.05 0 5.1 0 0 Z " fill="#FFFFFF" transform="translate(330,270)"/>
<path d="M0 0 C4.95 0 9.9 0 15 0 C15 4.95 15 9.9 15 15 C10.05 15 5.1 15 0 15 C0 10.05 0 5.1 0 0 Z " fill="#EFEEEE" transform="translate(315,270)"/>
<path d="M0 0 C4.95 0 9.9 0 15 0 C15 4.95 15 9.9 15 15 C10.05 15 5.1 15 0 15 C0 10.05 0 5.1 0 0 Z " fill="#FFFFFF" transform="translate(300,270)"/>
<path d="M0 0 C4.95 0 9.9 0 15 0 C15 4.95 15 9.9 15 15 C10.05 15 5.1 15 0 15 C0 10.05 0 5.1 0 0 Z " fill="#FFFFFF" transform="translate(30,270)"/>
<path d="M0 0 C4.95 0 9.9 0 15 0 C15 4.95 15 9.9 15 15 C10.05 15 5.1 15 0 15 C0 10.05 0 5.1 0 0 Z " fill="#EFEEEE" transform="translate(15,270)"/>
<path d="M0 0 C4.95 0 9.9 0 15 0 C15 4.95 15 9.9 15 15 C10.05 15 5.1 15 0 15 C0 10.05 0 5.1 0 0 Z " fill="#FFFFFF" transform="translate(0,270)"/>
<path d="M0 0 C4.95 0 9.9 0 15 0 C15 4.95 15 9.9 15 15 C10.05 15 5.1 15 0 15 C0 10.05 0 5.1 0 0 Z " fill="#FFFFFF" transform="translate(345,255)"/>
<path d="M0 0 C4.95 0 9.9 0 15 0 C15 4.95 15 9.9 15 15 C10.05 15 5.1 15 0 15 C0 10.05 0 5.1 0 0 Z " fill="#EFEEEE" transform="translate(330,255)"/>
<path d="M0 0 C4.95 0 9.9 0 15 0 C15 4.95 15 9.9 15 15 C10.05 15 5.1 15 0 15 C0 10.05 0 5.1 0 0 Z " fill="#FFFFFF" transform="translate(315,255)"/>
<path d="M0 0 C4.95 0 9.9 0 15 0 C15 4.95 15 9.9 15 15 C10.05 15 5.1 15 0 15 C0 10.05 0 5.1 0 0 Z " fill="#EFEEEE" transform="translate(300,255)"/>
<path d="M0 0 C4.95 0 9.9 0 15 0 C15 4.95 15 9.9 15 15 C10.05 15 5.1 15 0 15 C0 10.05 0 5.1 0 0 Z " fill="#FFFFFF" transform="translate(45,255)"/>
<path d="M0 0 C4.95 0 9.9 0 15 0 C15 4.95 15 9.9 15 15 C10.05 15 5.1 15 0 15 C0 10.05 0 5.1 0 0 Z " fill="#EFEEEE" transform="translate(30,255)"/>
<path d="M0 0 C4.95 0 9.9 0 15 0 C15 4.95 15 9.9 15 15 C10.05 15 5.1 15 0 15 C0 10.05 0 5.1 0 0 Z " fill="#FFFFFF" transform="translate(15,255)"/>
<path d="M0 0 C4.95 0 9.9 0 15 0 C15 4.95 15 9.9 15 15 C10.05 15 5.1 15 0 15 C0 10.05 0 5.1 0 0 Z " fill="#EFEEEE" transform="translate(0,255)"/>
<path d="M0 0 C4.95 0 9.9 0 15 0 C15 4.95 15 9.9 15 15 C10.05 15 5.1 15 0 15 C0 10.05 0 5.1 0 0 Z " fill="#EFEEEE" transform="translate(345,240)"/>
<path d="M0 0 C4.95 0 9.9 0 15 0 C15 4.95 15 9.9 15 15 C10.05 15 5.1 15 0 15 C0 10.05 0 5.1 0 0 Z " fill="#FFFFFF" transform="translate(330,240)"/>
<path d="M0 0 C4.95 0 9.9 0 15 0 C15 4.95 15 9.9 15 15 C10.05 15 5.1 15 0 15 C0 10.05 0 5.1 0 0 Z " fill="#EFEEEE" transform="translate(315,240)"/>
<path d="M0 0 C4.95 0 9.9 0 15 0 C15 4.95 15 9.9 15 15 C10.05 15 5.1 15 0 15 C0 10.05 0 5.1 0 0 Z " fill="#FFFFFF" transform="translate(300,240)"/>
<path d="M0 0 C4.95 0 9.9 0 15 0 C15 4.95 15 9.9 15 15 C10.05 15 5.1 15 0 15 C0 10.05 0 5.1 0 0 Z " fill="#EFEEEE" transform="translate(285,240)"/>
<path d="M0 0 C4.95 0 9.9 0 15 0 C15 4.95 15 9.9 15 15 C10.05 15 5.1 15 0 15 C0 10.05 0 5.1 0 0 Z " fill="#EFEEEE" transform="translate(45,240)"/>
<path d="M0 0 C4.95 0 9.9 0 15 0 C15 4.95 15 9.9 15 15 C10.05 15 5.1 15 0 15 C0 10.05 0 5.1 0 0 Z " fill="#FFFFFF" transform="translate(30,240)"/>
<path d="M0 0 C4.95 0 9.9 0 15 0 C15 4.95 15 9.9 15 15 C10.05 15 5.1 15 0 15 C0 10.05 0 5.1 0 0 Z " fill="#EFEEEE" transform="translate(15,240)"/>
<path d="M0 0 C4.95 0 9.9 0 15 0 C15 4.95 15 9.9 15 15 C10.05 15 5.1 15 0 15 C0 10.05 0 5.1 0 0 Z " fill="#FFFFFF" transform="translate(0,240)"/>
<path d="M0 0 C4.95 0 9.9 0 15 0 C15 4.95 15 9.9 15 15 C10.05 15 5.1 15 0 15 C0 10.05 0 5.1 0 0 Z " fill="#FFFFFF" transform="translate(345,225)"/>
<path d="M0 0 C4.95 0 9.9 0 15 0 C15 4.95 15 9.9 15 15 C10.05 15 5.1 15 0 15 C0 10.05 0 5.1 0 0 Z " fill="#EFEEEE" transform="translate(330,225)"/>
<path d="M0 0 C4.95 0 9.9 0 15 0 C15 4.95 15 9.9 15 15 C10.05 15 5.1 15 0 15 C0 10.05 0 5.1 0 0 Z " fill="#FFFFFF" transform="translate(315,225)"/>
<path d="M0 0 C4.95 0 9.9 0 15 0 C15 4.95 15 9.9 15 15 C10.05 15 5.1 15 0 15 C0 10.05 0 5.1 0 0 Z " fill="#EFEEEE" transform="translate(300,225)"/>
<path d="M0 0 C4.95 0 9.9 0 15 0 C15 4.95 15 9.9 15 15 C10.05 15 5.1 15 0 15 C0 10.05 0 5.1 0 0 Z " fill="#FFFFFF" transform="translate(285,225)"/>
<path d="M0 0 C4.95 0 9.9 0 15 0 C15 4.95 15 9.9 15 15 C10.05 15 5.1 15 0 15 C0 10.05 0 5.1 0 0 Z " fill="#EFEEEE" transform="translate(60,225)"/>
<path d="M0 0 C4.95 0 9.9 0 15 0 C15 4.95 15 9.9 15 15 C10.05 15 5.1 15 0 15 C0 10.05 0 5.1 0 0 Z " fill="#FFFFFF" transform="translate(45,225)"/>
<path d="M0 0 C4.95 0 9.9 0 15 0 C15 4.95 15 9.9 15 15 C10.05 15 5.1 15 0 15 C0 10.05 0 5.1 0 0 Z " fill="#EFEEEE" transform="translate(30,225)"/>
<path d="M0 0 C4.95 0 9.9 0 15 0 C15 4.95 15 9.9 15 15 C10.05 15 5.1 15 0 15 C0 10.05 0 5.1 0 0 Z " fill="#FFFFFF" transform="translate(15,225)"/>
<path d="M0 0 C4.95 0 9.9 0 15 0 C15 4.95 15 9.9 15 15 C10.05 15 5.1 15 0 15 C0 10.05 0 5.1 0 0 Z " fill="#EFEEEE" transform="translate(0,225)"/>
<path d="M0 0 C4.95 0 9.9 0 15 0 C15 4.95 15 9.9 15 15 C10.05 15 5.1 15 0 15 C0 10.05 0 5.1 0 0 Z " fill="#EFEEEE" transform="translate(345,210)"/>
<path d="M0 0 C4.95 0 9.9 0 15 0 C15 4.95 15 9.9 15 15 C10.05 15 5.1 15 0 15 C0 10.05 0 5.1 0 0 Z " fill="#FFFFFF" transform="translate(330,210)"/>
<path d="M0 0 C4.95 0 9.9 0 15 0 C15 4.95 15 9.9 15 15 C10.05 15 5.1 15 0 15 C0 10.05 0 5.1 0 0 Z " fill="#EFEEEE" transform="translate(315,210)"/>
<path d="M0 0 C4.95 0 9.9 0 15 0 C15 4.95 15 9.9 15 15 C10.05 15 5.1 15 0 15 C0 10.05 0 5.1 0 0 Z " fill="#FFFFFF" transform="translate(300,210)"/>
<path d="M0 0 C4.95 0 9.9 0 15 0 C15 4.95 15 9.9 15 15 C10.05 15 5.1 15 0 15 C0 10.05 0 5.1 0 0 Z " fill="#EFEEEE" transform="translate(285,210)"/>
<path d="M0 0 C4.95 0 9.9 0 15 0 C15 4.95 15 9.9 15 15 C10.05 15 5.1 15 0 15 C0 10.05 0 5.1 0 0 Z " fill="#FFFFFF" transform="translate(60,210)"/>
<path d="M0 0 C4.95 0 9.9 0 15 0 C15 4.95 15 9.9 15 15 C10.05 15 5.1 15 0 15 C0 10.05 0 5.1 0 0 Z " fill="#EFEEEE" transform="translate(45,210)"/>
<path d="M0 0 C4.95 0 9.9 0 15 0 C15 4.95 15 9.9 15 15 C10.05 15 5.1 15 0 15 C0 10.05 0 5.1 0 0 Z " fill="#FFFFFF" transform="translate(30,210)"/>
<path d="M0 0 C4.95 0 9.9 0 15 0 C15 4.95 15 9.9 15 15 C10.05 15 5.1 15 0 15 C0 10.05 0 5.1 0 0 Z " fill="#EFEEEE" transform="translate(15,210)"/>
<path d="M0 0 C4.95 0 9.9 0 15 0 C15 4.95 15 9.9 15 15 C10.05 15 5.1 15 0 15 C0 10.05 0 5.1 0 0 Z " fill="#FFFFFF" transform="translate(0,210)"/>
<path d="M0 0 C4.95 0 9.9 0 15 0 C15 4.95 15 9.9 15 15 C10.05 15 5.1 15 0 15 C0 10.05 0 5.1 0 0 Z " fill="#FFFFFF" transform="translate(345,195)"/>
<path d="M0 0 C4.95 0 9.9 0 15 0 C15 4.95 15 9.9 15 15 C10.05 15 5.1 15 0 15 C0 10.05 0 5.1 0 0 Z " fill="#EFEEEE" transform="translate(330,195)"/>
<path d="M0 0 C4.95 0 9.9 0 15 0 C15 4.95 15 9.9 15 15 C10.05 15 5.1 15 0 15 C0 10.05 0 5.1 0 0 Z " fill="#FFFFFF" transform="translate(315,195)"/>
<path d="M0 0 C3.58072917 0.06510417 7.16145833 0.13020833 10.7421875 0.1953125 C10.7421875 5.1453125 10.7421875 10.0953125 10.7421875 15.1953125 C5.7921875 15.1953125 0.8421875 15.1953125 -4.2578125 15.1953125 C-5.234375 5.234375 -5.234375 5.234375 -5.2578125 2.1953125 C-3.2578125 0.1953125 -3.2578125 0.1953125 0 0 Z " fill="#EFEDED" transform="translate(304.2578125,194.8046875)"/>
<path d="M0 0 C4.95 0 9.9 0 15 0 C15 4.95 15 9.9 15 15 C10.05 15 5.1 15 0 15 C0 10.05 0 5.1 0 0 Z " fill="#FFFFFF" transform="translate(45,195)"/>
<path d="M0 0 C4.95 0 9.9 0 15 0 C15 4.95 15 9.9 15 15 C10.05 15 5.1 15 0 15 C0 10.05 0 5.1 0 0 Z " fill="#EFEEEE" transform="translate(30,195)"/>
<path d="M0 0 C4.95 0 9.9 0 15 0 C15 4.95 15 9.9 15 15 C10.05 15 5.1 15 0 15 C0 10.05 0 5.1 0 0 Z " fill="#FFFFFF" transform="translate(15,195)"/>
<path d="M0 0 C4.95 0 9.9 0 15 0 C15 4.95 15 9.9 15 15 C10.05 15 5.1 15 0 15 C0 10.05 0 5.1 0 0 Z " fill="#EFEEEE" transform="translate(0,195)"/>
<path d="M0 0 C4.95 0 9.9 0 15 0 C15 4.95 15 9.9 15 15 C10.05 15 5.1 15 0 15 C0 10.05 0 5.1 0 0 Z " fill="#EFEEEE" transform="translate(345,180)"/>
<path d="M0 0 C4.95 0 9.9 0 15 0 C15 4.95 15 9.9 15 15 C10.05 15 5.1 15 0 15 C0 10.05 0 5.1 0 0 Z " fill="#FFFFFF" transform="translate(330,180)"/>
<path d="M0 0 C4.95 0 9.9 0 15 0 C15 4.95 15 9.9 15 15 C10.05 15 5.1 15 0 15 C0 10.05 0 5.1 0 0 Z " fill="#EFEEEE" transform="translate(315,180)"/>
<path d="M0 0 C4.95 0 9.9 0 15 0 C15 4.95 15 9.9 15 15 C10.05 15 5.1 15 0 15 C0 10.05 0 5.1 0 0 Z " fill="#FFFFFF" transform="translate(30,180)"/>
<path d="M0 0 C4.95 0 9.9 0 15 0 C15 4.95 15 9.9 15 15 C10.05 15 5.1 15 0 15 C0 10.05 0 5.1 0 0 Z " fill="#EFEEEE" transform="translate(15,180)"/>
<path d="M0 0 C4.95 0 9.9 0 15 0 C15 4.95 15 9.9 15 15 C10.05 15 5.1 15 0 15 C0 10.05 0 5.1 0 0 Z " fill="#FFFFFF" transform="translate(0,180)"/>
<path d="M0 0 C4.95 0 9.9 0 15 0 C15 4.95 15 9.9 15 15 C10.05 15 5.1 15 0 15 C0 10.05 0 5.1 0 0 Z " fill="#FFFFFF" transform="translate(345,165)"/>
<path d="M0 0 C4.95 0 9.9 0 15 0 C15 4.95 15 9.9 15 15 C10.05 15 5.1 15 0 15 C0 10.05 0 5.1 0 0 Z " fill="#FFFFFF" transform="translate(15,165)"/>
<path d="M0 0 C4.95 0 9.9 0 15 0 C15 4.95 15 9.9 15 15 C10.05 15 5.1 15 0 15 C0 10.05 0 5.1 0 0 Z " fill="#EFEEEE" transform="translate(0,165)"/>
<path d="M0 0 C4.95 0 9.9 0 15 0 C15 4.95 15 9.9 15 15 C10.05 15 5.1 15 0 15 C0 10.05 0 5.1 0 0 Z " fill="#EFEEEE" transform="translate(345,150)"/>
<path d="M0 0 C4.95 0 9.9 0 15 0 C15 4.95 15 9.9 15 15 C10.05 15 5.1 15 0 15 C0 10.05 0 5.1 0 0 Z " fill="#FFFFFF" transform="translate(330,150)"/>
<path d="M0 0 C4.95 0 9.9 0 15 0 C15 4.95 15 9.9 15 15 C10.05 15 5.1 15 0 15 C0 10.05 0 5.1 0 0 Z " fill="#EFEEEE" transform="translate(225,150)"/>
<path d="M0 0 C4.95 0 9.9 0 15 0 C15 4.95 15 9.9 15 15 C10.05 15 5.1 15 0 15 C0 10.05 0 5.1 0 0 Z " fill="#FFFFFF" transform="translate(120,150)"/>
<path d="M0 0 C4.95 0 9.9 0 15 0 C15 4.95 15 9.9 15 15 C10.05 15 5.1 15 0 15 C0 10.05 0 5.1 0 0 Z " fill="#EFEEEE" transform="translate(15,150)"/>
<path d="M0 0 C4.95 0 9.9 0 15 0 C15 4.95 15 9.9 15 15 C10.05 15 5.1 15 0 15 C0 10.05 0 5.1 0 0 Z " fill="#FFFFFF" transform="translate(0,150)"/>
<path d="M0 0 C4.95 0 9.9 0 15 0 C15 4.95 15 9.9 15 15 C10.05 15 5.1 15 0 15 C0 10.05 0 5.1 0 0 Z " fill="#FFFFFF" transform="translate(345,135)"/>
<path d="M0 0 C4.95 0 9.9 0 15 0 C15 4.95 15 9.9 15 15 C10.05 15 5.1 15 0 15 C0 10.05 0 5.1 0 0 Z " fill="#EFEEEE" transform="translate(180,135)"/>
<path d="M0 0 C4.95 0 9.9 0 15 0 C15 4.95 15 9.9 15 15 C10.05 15 5.1 15 0 15 C0 10.05 0 5.1 0 0 Z " fill="#FFFFFF" transform="translate(165,135)"/>
<path d="M0 0 C4.95 0 9.9 0 15 0 C15 4.95 15 9.9 15 15 C10.05 15 5.1 15 0 15 C0 10.05 0 5.1 0 0 Z " fill="#FFFFFF" transform="translate(15,135)"/>
<path d="M0 0 C4.95 0 9.9 0 15 0 C15 4.95 15 9.9 15 15 C10.05 15 5.1 15 0 15 C0 10.05 0 5.1 0 0 Z " fill="#EFEEEE" transform="translate(0,135)"/>
<path d="M0 0 C4.95 0 9.9 0 15 0 C15 4.95 15 9.9 15 15 C10.05 15 5.1 15 0 15 C0 10.05 0 5.1 0 0 Z " fill="#EFEEEE" transform="translate(345,120)"/>
<path d="M0 0 C4.95 0 9.9 0 15 0 C15 4.95 15 9.9 15 15 C10.05 15 5.1 15 0 15 C0 10.05 0 5.1 0 0 Z " fill="#FFFFFF" transform="translate(330,120)"/>
<path d="M0 0 C4.95 0 9.9 0 15 0 C15 4.95 15 9.9 15 15 C10.05 15 5.1 15 0 15 C0 10.05 0 5.1 0 0 Z " fill="#EFEEEE" transform="translate(15,120)"/>
<path d="M0 0 C4.95 0 9.9 0 15 0 C15 4.95 15 9.9 15 15 C10.05 15 5.1 15 0 15 C0 10.05 0 5.1 0 0 Z " fill="#FFFFFF" transform="translate(0,120)"/>
<path d="M0 0 C4.95 0 9.9 0 15 0 C15 4.95 15 9.9 15 15 C10.05 15 5.1 15 0 15 C0 10.05 0 5.1 0 0 Z " fill="#FFFFFF" transform="translate(345,105)"/>
<path d="M0 0 C4.95 0 9.9 0 15 0 C15 4.95 15 9.9 15 15 C10.05 15 5.1 15 0 15 C0 10.05 0 5.1 0 0 Z " fill="#EFEEEE" transform="translate(330,105)"/>
<path d="M0 0 C4.95 0 9.9 0 15 0 C15 4.95 15 9.9 15 15 C10.05 15 5.1 15 0 15 C0 10.05 0 5.1 0 0 Z " fill="#FFFFFF" transform="translate(15,105)"/>
<path d="M0 0 C4.95 0 9.9 0 15 0 C15 4.95 15 9.9 15 15 C10.05 15 5.1 15 0 15 C0 10.05 0 5.1 0 0 Z " fill="#EFEEEE" transform="translate(0,105)"/>
<path d="M0 0 C4.95 0 9.9 0 15 0 C15 4.95 15 9.9 15 15 C10.05 15 5.1 15 0 15 C0 10.05 0 5.1 0 0 Z " fill="#EFEEEE" transform="translate(345,90)"/>
<path d="M0 0 C4.95 0 9.9 0 15 0 C15 4.95 15 9.9 15 15 C10.05 15 5.1 15 0 15 C0 10.05 0 5.1 0 0 Z " fill="#FFFFFF" transform="translate(330,90)"/>
<path d="M0 0 C4.95 0 9.9 0 15 0 C15 4.95 15 9.9 15 15 C10.05 15 5.1 15 0 15 C0 10.05 0 5.1 0 0 Z " fill="#EFEEEE" transform="translate(315,90)"/>
<path d="M0 0 C4.95 0 9.9 0 15 0 C15 4.95 15 9.9 15 15 C10.05 15 5.1 15 0 15 C0 10.05 0 5.1 0 0 Z " fill="#EFEEEE" transform="translate(15,90)"/>
<path d="M0 0 C4.95 0 9.9 0 15 0 C15 4.95 15 9.9 15 15 C10.05 15 5.1 15 0 15 C0 10.05 0 5.1 0 0 Z " fill="#FFFFFF" transform="translate(0,90)"/>
<path d="M0 0 C4.95 0 9.9 0 15 0 C15 4.95 15 9.9 15 15 C10.05 15 5.1 15 0 15 C0 10.05 0 5.1 0 0 Z " fill="#FFFFFF" transform="translate(345,75)"/>
<path d="M0 0 C4.95 0 9.9 0 15 0 C15 4.95 15 9.9 15 15 C10.05 15 5.1 15 0 15 C0 10.05 0 5.1 0 0 Z " fill="#EFEEEE" transform="translate(330,75)"/>
<path d="M0 0 C4.95 0 9.9 0 15 0 C15 4.95 15 9.9 15 15 C10.05 15 5.1 15 0 15 C0 10.05 0 5.1 0 0 Z " fill="#FFFFFF" transform="translate(315,75)"/>
<path d="M0 0 C4.95 0 9.9 0 15 0 C15 4.95 15 9.9 15 15 C10.05 15 5.1 15 0 15 C0 10.05 0 5.1 0 0 Z " fill="#EFEEEE" transform="translate(300,75)"/>
<path d="M0 0 C4.95 0 9.9 0 15 0 C15 4.95 15 9.9 15 15 C10.05 15 5.1 15 0 15 C0 10.05 0 5.1 0 0 Z " fill="#FFFFFF" transform="translate(285,75)"/>
<path d="M0 0 C4.95 0 9.9 0 15 0 C15 4.95 15 9.9 15 15 C10.05 15 5.1 15 0 15 C0 10.05 0 5.1 0 0 Z " fill="#EFEEEE" transform="translate(270,75)"/>
<path d="M0 0 C4.95 0 9.9 0 15 0 C15 4.95 15 9.9 15 15 C10.05 15 5.1 15 0 15 C0 10.05 0 5.1 0 0 Z " fill="#FFFFFF" transform="translate(75,75)"/>
<path d="M0 0 C4.95 0 9.9 0 15 0 C15 4.95 15 9.9 15 15 C10.05 15 5.1 15 0 15 C0 10.05 0 5.1 0 0 Z " fill="#EFEEEE" transform="translate(60,75)"/>
<path d="M0 0 C4.95 0 9.9 0 15 0 C15 4.95 15 9.9 15 15 C10.05 15 5.1 15 0 15 C0 10.05 0 5.1 0 0 Z " fill="#EFEEEE" transform="translate(30,75)"/>
<path d="M0 0 C4.95 0 9.9 0 15 0 C15 4.95 15 9.9 15 15 C10.05 15 5.1 15 0 15 C0 10.05 0 5.1 0 0 Z " fill="#FFFFFF" transform="translate(15,75)"/>
<path d="M0 0 C4.95 0 9.9 0 15 0 C15 4.95 15 9.9 15 15 C10.05 15 5.1 15 0 15 C0 10.05 0 5.1 0 0 Z " fill="#EFEEEE" transform="translate(0,75)"/>
<path d="M0 0 C4.95 0 9.9 0 15 0 C15 4.95 15 9.9 15 15 C10.05 15 5.1 15 0 15 C0 10.05 0 5.1 0 0 Z " fill="#EFEEEE" transform="translate(345,60)"/>
<path d="M0 0 C4.95 0 9.9 0 15 0 C15 4.95 15 9.9 15 15 C10.05 15 5.1 15 0 15 C0 10.05 0 5.1 0 0 Z " fill="#FFFFFF" transform="translate(330,60)"/>
<path d="M0 0 C4.95 0 9.9 0 15 0 C15 4.95 15 9.9 15 15 C10.05 15 5.1 15 0 15 C0 10.05 0 5.1 0 0 Z " fill="#EFEEEE" transform="translate(315,60)"/>
<path d="M0 0 C4.95 0 9.9 0 15 0 C15 4.95 15 9.9 15 15 C10.05 15 5.1 15 0 15 C0 10.05 0 5.1 0 0 Z " fill="#FFFFFF" transform="translate(300,60)"/>
<path d="M0 0 C4.95 0 9.9 0 15 0 C15 4.95 15 9.9 15 15 C10.05 15 5.1 15 0 15 C0 10.05 0 5.1 0 0 Z " fill="#EFEEEE" transform="translate(285,60)"/>
<path d="M0 0 C4.95 0 9.9 0 15 0 C15 4.95 15 9.9 15 15 C10.05 15 5.1 15 0 15 C0 10.05 0 5.1 0 0 Z " fill="#FFFFFF" transform="translate(270,60)"/>
<path d="M0 0 C4.95 0 9.9 0 15 0 C15 4.95 15 9.9 15 15 C10.05 15 5.1 15 0 15 C0 10.05 0 5.1 0 0 Z " fill="#EFEEEE" transform="translate(75,60)"/>
<path d="M0 0 C4.95 0 9.9 0 15 0 C15 4.95 15 9.9 15 15 C10.05 15 5.1 15 0 15 C0 10.05 0 5.1 0 0 Z " fill="#FFFFFF" transform="translate(60,60)"/>
<path d="M0 0 C4.95 0 9.9 0 15 0 C15 4.95 15 9.9 15 15 C10.05 15 5.1 15 0 15 C0 10.05 0 5.1 0 0 Z " fill="#EFEEEE" transform="translate(45,60)"/>
<path d="M0 0 C4.95 0 9.9 0 15 0 C15 4.95 15 9.9 15 15 C10.05 15 5.1 15 0 15 C0 10.05 0 5.1 0 0 Z " fill="#FFFFFF" transform="translate(30,60)"/>
<path d="M0 0 C4.95 0 9.9 0 15 0 C15 4.95 15 9.9 15 15 C10.05 15 5.1 15 0 15 C0 10.05 0 5.1 0 0 Z " fill="#EFEEEE" transform="translate(15,60)"/>
<path d="M0 0 C4.95 0 9.9 0 15 0 C15 4.95 15 9.9 15 15 C10.05 15 5.1 15 0 15 C0 10.05 0 5.1 0 0 Z " fill="#FFFFFF" transform="translate(0,60)"/>
<path d="M0 0 C4.95 0 9.9 0 15 0 C15 4.95 15 9.9 15 15 C10.05 15 5.1 15 0 15 C0 10.05 0 5.1 0 0 Z " fill="#FFFFFF" transform="translate(345,45)"/>
<path d="M0 0 C4.95 0 9.9 0 15 0 C15 4.95 15 9.9 15 15 C10.05 15 5.1 15 0 15 C0 10.05 0 5.1 0 0 Z " fill="#EFEEEE" transform="translate(330,45)"/>
<path d="M0 0 C4.95 0 9.9 0 15 0 C15 4.95 15 9.9 15 15 C10.05 15 5.1 15 0 15 C0 10.05 0 5.1 0 0 Z " fill="#FFFFFF" transform="translate(315,45)"/>
<path d="M0 0 C4.95 0 9.9 0 15 0 C15 4.95 15 9.9 15 15 C10.05 15 5.1 15 0 15 C0 10.05 0 5.1 0 0 Z " fill="#EFEEEE" transform="translate(300,45)"/>
<path d="M0 0 C4.95 0 9.9 0 15 0 C15 4.95 15 9.9 15 15 C10.05 15 5.1 15 0 15 C0 10.05 0 5.1 0 0 Z " fill="#FFFFFF" transform="translate(285,45)"/>
<path d="M0 0 C4.95 0 9.9 0 15 0 C15 4.95 15 9.9 15 15 C10.05 15 5.1 15 0 15 C0 10.05 0 5.1 0 0 Z " fill="#EFEEEE" transform="translate(270,45)"/>
<path d="M0 0 C4.95 0 9.9 0 15 0 C15 4.95 15 9.9 15 15 C10.05 15 5.1 15 0 15 C0 10.05 0 5.1 0 0 Z " fill="#FFFFFF" transform="translate(75,45)"/>
<path d="M0 0 C4.95 0 9.9 0 15 0 C15 4.95 15 9.9 15 15 C10.05 15 5.1 15 0 15 C0 10.05 0 5.1 0 0 Z " fill="#EFEEEE" transform="translate(60,45)"/>
<path d="M0 0 C4.95 0 9.9 0 15 0 C15 4.95 15 9.9 15 15 C10.05 15 5.1 15 0 15 C0 10.05 0 5.1 0 0 Z " fill="#FFFFFF" transform="translate(45,45)"/>
<path d="M0 0 C4.95 0 9.9 0 15 0 C15 4.95 15 9.9 15 15 C10.05 15 5.1 15 0 15 C0 10.05 0 5.1 0 0 Z " fill="#EFEEEE" transform="translate(30,45)"/>
<path d="M0 0 C4.95 0 9.9 0 15 0 C15 4.95 15 9.9 15 15 C10.05 15 5.1 15 0 15 C0 10.05 0 5.1 0 0 Z " fill="#FFFFFF" transform="translate(15,45)"/>
<path d="M0 0 C4.95 0 9.9 0 15 0 C15 4.95 15 9.9 15 15 C10.05 15 5.1 15 0 15 C0 10.05 0 5.1 0 0 Z " fill="#EFEEEE" transform="translate(0,45)"/>
<path d="M0 0 C4.95 0 9.9 0 15 0 C15 4.95 15 9.9 15 15 C10.05 15 5.1 15 0 15 C0 10.05 0 5.1 0 0 Z " fill="#EFEEEE" transform="translate(345,30)"/>
<path d="M0 0 C4.95 0 9.9 0 15 0 C15 4.95 15 9.9 15 15 C10.05 15 5.1 15 0 15 C0 10.05 0 5.1 0 0 Z " fill="#FFFFFF" transform="translate(330,30)"/>
<path d="M0 0 C4.95 0 9.9 0 15 0 C15 4.95 15 9.9 15 15 C10.05 15 5.1 15 0 15 C0 10.05 0 5.1 0 0 Z " fill="#EFEEEE" transform="translate(315,30)"/>
<path d="M0 0 C4.95 0 9.9 0 15 0 C15 4.95 15 9.9 15 15 C10.05 15 5.1 15 0 15 C0 10.05 0 5.1 0 0 Z " fill="#FFFFFF" transform="translate(300,30)"/>
<path d="M0 0 C4.95 0 9.9 0 15 0 C15 4.95 15 9.9 15 15 C10.05 15 5.1 15 0 15 C0 10.05 0 5.1 0 0 Z " fill="#EFEEEE" transform="translate(285,30)"/>
<path d="M0 0 C4.95 0 9.9 0 15 0 C15 4.95 15 9.9 15 15 C10.05 15 5.1 15 0 15 C0 10.05 0 5.1 0 0 Z " fill="#FFFFFF" transform="translate(270,30)"/>
<path d="M0 0 C4.95 0 9.9 0 15 0 C15 4.95 15 9.9 15 15 C10.05 15 5.1 15 0 15 C0 10.05 0 5.1 0 0 Z " fill="#FFFFFF" transform="translate(180,30)"/>
<path d="M0 0 C4.95 0 9.9 0 15 0 C15 4.95 15 9.9 15 15 C10.05 15 5.1 15 0 15 C0 10.05 0 5.1 0 0 Z " fill="#EFEEEE" transform="translate(75,30)"/>
<path d="M0 0 C4.95 0 9.9 0 15 0 C15 4.95 15 9.9 15 15 C10.05 15 5.1 15 0 15 C0 10.05 0 5.1 0 0 Z " fill="#FFFFFF" transform="translate(60,30)"/>
<path d="M0 0 C4.95 0 9.9 0 15 0 C15 4.95 15 9.9 15 15 C10.05 15 5.1 15 0 15 C0 10.05 0 5.1 0 0 Z " fill="#EFEEEE" transform="translate(45,30)"/>
<path d="M0 0 C4.95 0 9.9 0 15 0 C15 4.95 15 9.9 15 15 C10.05 15 5.1 15 0 15 C0 10.05 0 5.1 0 0 Z " fill="#FFFFFF" transform="translate(30,30)"/>
<path d="M0 0 C4.95 0 9.9 0 15 0 C15 4.95 15 9.9 15 15 C10.05 15 5.1 15 0 15 C0 10.05 0 5.1 0 0 Z " fill="#EFEEEE" transform="translate(15,30)"/>
<path d="M0 0 C4.95 0 9.9 0 15 0 C15 4.95 15 9.9 15 15 C10.05 15 5.1 15 0 15 C0 10.05 0 5.1 0 0 Z " fill="#FFFFFF" transform="translate(0,30)"/>
<path d="M0 0 C4.95 0 9.9 0 15 0 C15 4.95 15 9.9 15 15 C10.05 15 5.1 15 0 15 C0 10.05 0 5.1 0 0 Z " fill="#FFFFFF" transform="translate(345,15)"/>
<path d="M0 0 C4.95 0 9.9 0 15 0 C15 4.95 15 9.9 15 15 C10.05 15 5.1 15 0 15 C0 10.05 0 5.1 0 0 Z " fill="#EFEEEE" transform="translate(330,15)"/>
<path d="M0 0 C4.95 0 9.9 0 15 0 C15 4.95 15 9.9 15 15 C10.05 15 5.1 15 0 15 C0 10.05 0 5.1 0 0 Z " fill="#FFFFFF" transform="translate(315,15)"/>
<path d="M0 0 C4.95 0 9.9 0 15 0 C15 4.95 15 9.9 15 15 C10.05 15 5.1 15 0 15 C0 10.05 0 5.1 0 0 Z " fill="#EFEEEE" transform="translate(300,15)"/>
<path d="M0 0 C4.95 0 9.9 0 15 0 C15 4.95 15 9.9 15 15 C10.05 15 5.1 15 0 15 C0 10.05 0 5.1 0 0 Z " fill="#FFFFFF" transform="translate(285,15)"/>
<path d="M0 0 C4.95 0 9.9 0 15 0 C15 4.95 15 9.9 15 15 C10.05 15 5.1 15 0 15 C0 10.05 0 5.1 0 0 Z " fill="#EFEEEE" transform="translate(270,15)"/>
<path d="M0 0 C4.95 0 9.9 0 15 0 C15 4.95 15 9.9 15 15 C10.05 15 5.1 15 0 15 C0 10.05 0 5.1 0 0 Z " fill="#EFEEEE" transform="translate(180,15)"/>
<path d="M0 0 C4.95 0 9.9 0 15 0 C15 4.95 15 9.9 15 15 C10.05 15 5.1 15 0 15 C0 10.05 0 5.1 0 0 Z " fill="#FFFFFF" transform="translate(165,15)"/>
<path d="M0 0 C4.95 0 9.9 0 15 0 C15 4.95 15 9.9 15 15 C10.05 15 5.1 15 0 15 C0 10.05 0 5.1 0 0 Z " fill="#EFEEEE" transform="translate(90,15)"/>
<path d="M0 0 C4.95 0 9.9 0 15 0 C15 4.95 15 9.9 15 15 C10.05 15 5.1 15 0 15 C0 10.05 0 5.1 0 0 Z " fill="#FFFFFF" transform="translate(75,15)"/>
<path d="M0 0 C4.95 0 9.9 0 15 0 C15 4.95 15 9.9 15 15 C10.05 15 5.1 15 0 15 C0 10.05 0 5.1 0 0 Z " fill="#EFEEEE" transform="translate(60,15)"/>
<path d="M0 0 C4.95 0 9.9 0 15 0 C15 4.95 15 9.9 15 15 C10.05 15 5.1 15 0 15 C0 10.05 0 5.1 0 0 Z " fill="#FFFFFF" transform="translate(45,15)"/>
<path d="M0 0 C4.95 0 9.9 0 15 0 C15 4.95 15 9.9 15 15 C10.05 15 5.1 15 0 15 C0 10.05 0 5.1 0 0 Z " fill="#EFEEEE" transform="translate(30,15)"/>
<path d="M0 0 C4.95 0 9.9 0 15 0 C15 4.95 15 9.9 15 15 C10.05 15 5.1 15 0 15 C0 10.05 0 5.1 0 0 Z " fill="#FFFFFF" transform="translate(15,15)"/>
<path d="M0 0 C4.95 0 9.9 0 15 0 C15 4.95 15 9.9 15 15 C10.05 15 5.1 15 0 15 C0 10.05 0 5.1 0 0 Z " fill="#EFEEEE" transform="translate(0,15)"/>
<path d="M0 0 C4.95 0 9.9 0 15 0 C15 4.95 15 9.9 15 15 C10.05 15 5.1 15 0 15 C0 10.05 0 5.1 0 0 Z " fill="#EFEEEE" transform="translate(345,0)"/>
<path d="M0 0 C4.95 0 9.9 0 15 0 C15 4.95 15 9.9 15 15 C10.05 15 5.1 15 0 15 C0 10.05 0 5.1 0 0 Z " fill="#FFFFFF" transform="translate(330,0)"/>
<path d="M0 0 C4.95 0 9.9 0 15 0 C15 4.95 15 9.9 15 15 C10.05 15 5.1 15 0 15 C0 10.05 0 5.1 0 0 Z " fill="#EFEEEE" transform="translate(315,0)"/>
<path d="M0 0 C4.95 0 9.9 0 15 0 C15 4.95 15 9.9 15 15 C10.05 15 5.1 15 0 15 C0 10.05 0 5.1 0 0 Z " fill="#FFFFFF" transform="translate(300,0)"/>
<path d="M0 0 C4.95 0 9.9 0 15 0 C15 4.95 15 9.9 15 15 C10.05 15 5.1 15 0 15 C0 10.05 0 5.1 0 0 Z " fill="#EFEEEE" transform="translate(285,0)"/>
<path d="M0 0 C4.95 0 9.9 0 15 0 C15 4.95 15 9.9 15 15 C10.05 15 5.1 15 0 15 C0 10.05 0 5.1 0 0 Z " fill="#FFFFFF" transform="translate(270,0)"/>
<path d="M0 0 C4.95 0 9.9 0 15 0 C15 4.95 15 9.9 15 15 C10.05 15 5.1 15 0 15 C0 10.05 0 5.1 0 0 Z " fill="#EFEEEE" transform="translate(255,0)"/>
<path d="M0 0 C4.95 0 9.9 0 15 0 C15 4.95 15 9.9 15 15 C10.05 15 5.1 15 0 15 C0 10.05 0 5.1 0 0 Z " fill="#FFFFFF" transform="translate(210,0)"/>
<path d="M0 0 C4.95 0 9.9 0 15 0 C15 4.95 15 9.9 15 15 C10.05 15 5.1 15 0 15 C0 10.05 0 5.1 0 0 Z " fill="#EFEEEE" transform="translate(195,0)"/>
<path d="M0 0 C4.95 0 9.9 0 15 0 C15 4.95 15 9.9 15 15 C10.05 15 5.1 15 0 15 C0 10.05 0 5.1 0 0 Z " fill="#FFFFFF" transform="translate(180,0)"/>
<path d="M0 0 C4.95 0 9.9 0 15 0 C15 4.95 15 9.9 15 15 C10.05 15 5.1 15 0 15 C0 10.05 0 5.1 0 0 Z " fill="#FFFFFF" transform="translate(150,0)"/>
<path d="M0 0 C4.95 0 9.9 0 15 0 C15 4.95 15 9.9 15 15 C10.05 15 5.1 15 0 15 C0 10.05 0 5.1 0 0 Z " fill="#EFEEEE" transform="translate(105,0)"/>
<path d="M0 0 C4.95 0 9.9 0 15 0 C15 4.95 15 9.9 15 15 C10.05 15 5.1 15 0 15 C0 10.05 0 5.1 0 0 Z " fill="#FFFFFF" transform="translate(90,0)"/>
<path d="M0 0 C4.95 0 9.9 0 15 0 C15 4.95 15 9.9 15 15 C10.05 15 5.1 15 0 15 C0 10.05 0 5.1 0 0 Z " fill="#EFEEEE" transform="translate(75,0)"/>
<path d="M0 0 C4.95 0 9.9 0 15 0 C15 4.95 15 9.9 15 15 C10.05 15 5.1 15 0 15 C0 10.05 0 5.1 0 0 Z " fill="#FFFFFF" transform="translate(60,0)"/>
<path d="M0 0 C4.95 0 9.9 0 15 0 C15 4.95 15 9.9 15 15 C10.05 15 5.1 15 0 15 C0 10.05 0 5.1 0 0 Z " fill="#EFEEEE" transform="translate(45,0)"/>
<path d="M0 0 C4.95 0 9.9 0 15 0 C15 4.95 15 9.9 15 15 C10.05 15 5.1 15 0 15 C0 10.05 0 5.1 0 0 Z " fill="#FFFFFF" transform="translate(30,0)"/>
<path d="M0 0 C4.95 0 9.9 0 15 0 C15 4.95 15 9.9 15 15 C10.05 15 5.1 15 0 15 C0 10.05 0 5.1 0 0 Z " fill="#FFFFFF" transform="translate(0,0)"/>
<path d="M0 0 C4.95 0 9.9 0 15 0 C15.1953125 10.7421875 15.1953125 10.7421875 15 14 C14.34 14.66 13.68 15.32 13 16 C8.63194681 15.96631321 4.35224295 15.42669049 0 15 C0 10.05 0 5.1 0 0 Z " fill="#EFEDED" transform="translate(75,210)"/>
<path d="M0 0 C4.95 0 9.9 0 15 0 C15.125 11.625 15.125 11.625 14 15 C9.38 15 4.76 15 0 15 C0 10.05 0 5.1 0 0 Z " fill="#EFEEEE" transform="translate(180,45)"/>
<path d="M0 0 C-0.99 0.33 -1.98 0.66 -3 1 C-3 4.63 -3 8.26 -3 12 C-7.95 12 -12.9 12 -18 12 C-18 7.05 -18 2.1 -18 -3 C-11.90013242 -5.03328919 -5.82217769 -2.05716945 0 0 Z " fill="#FEFEFE" transform="translate(93,348)"/>
<path d="M0 0 C4.95 0 9.9 0 15 0 C15.125 10.5 15.125 10.5 14 15 C9.38 15 4.76 15 0 15 C0 10.05 0 5.1 0 0 Z " fill="#EFEEEE" transform="translate(45,270)"/>
<path d="M0 0 C0.83789062 0.10183594 1.67578125 0.20367187 2.5390625 0.30859375 C3.14492187 0.39238281 3.75078125 0.47617188 4.375 0.5625 C4.375 0.8925 4.375 1.2225 4.375 1.5625 C2.395 1.5625 0.415 1.5625 -1.625 1.5625 C-1.625 4.2025 -1.625 6.8425 -1.625 9.5625 C-0.965 9.8925 -0.305 10.2225 0.375 10.5625 C-0.945 10.5625 -2.265 10.5625 -3.625 10.5625 C-3.625 13.5325 -3.625 16.5025 -3.625 19.5625 C-3.955 19.5625 -4.285 19.5625 -4.625 19.5625 C-4.625 17.9125 -4.625 16.2625 -4.625 14.5625 C-7.925 14.5625 -11.225 14.5625 -14.625 14.5625 C-14.625 19.5125 -14.625 24.4625 -14.625 29.5625 C-14.955 29.5625 -15.285 29.5625 -15.625 29.5625 C-15.625 19.9925 -15.625 10.4225 -15.625 0.5625 C-4.375 -0.5625 -4.375 -0.5625 0 0 Z " fill="#FEFDFD" transform="translate(211.625,255.4375)"/>
<path d="M0 0 C4.95 0 9.9 0 15 0 C15 4.62 15 9.24 15 14 C10.05 14.33 5.1 14.66 0 15 C0 10.05 0 5.1 0 0 Z " fill="#EFEEEE" transform="translate(225,0)"/>
<path d="M0 0 C4.95 0 9.9 0 15 0 C15 4.95 15 9.9 15 15 C11.04 15 7.08 15 3 15 C-0.24013514 9.7347804 -0.27288764 6.00352801 0 0 Z " fill="#EFEEEE" transform="translate(165,30)"/>
<path d="M0 0 C2.35020498 2.35020498 2.31914802 2.91909622 2.375 6.125 C2.25440795 11.10143186 0.97779101 14.99369565 -2 19 C-6.13561906 21.83585307 -11.15657802 21.18993812 -16 21 C-15.34 20.67 -14.68 20.34 -14 20 C-14.02320313 19.37351562 -14.04640625 18.74703125 -14.0703125 18.1015625 C-14.08835938 17.28429687 -14.10640625 16.46703125 -14.125 15.625 C-14.15980469 14.40683594 -14.15980469 14.40683594 -14.1953125 13.1640625 C-14 11 -14 11 -12 9 C-11.60235737 7.01178687 -11.26224651 5.01055661 -11 3 C-10.67 3.99 -10.34 4.98 -10 6 C-6.7 6 -3.4 6 0 6 C0 4.02 0 2.04 0 0 Z " fill="#FDF8F7" transform="translate(224,264)"/>
<path d="M0 0 C4.95 0 9.9 0 15 0 C15 4.95 15 9.9 15 15 C4.25 15.125 4.25 15.125 2 14 C1.3671875 11.85546875 1.3671875 11.85546875 0.875 9.1875 C0.70742188 8.31480469 0.53984375 7.44210937 0.3671875 6.54296875 C0 4 0 4 0 0 Z " fill="#EFEDED" transform="translate(285,270)"/>
<path d="M0 0 C1.9375 1.625 1.9375 1.625 3 4 C2.93632334 6.76993457 2.50295217 9.25662454 2 12 C0.96939453 11.91298828 0.96939453 11.91298828 -0.08203125 11.82421875 C-2.79739443 11.68825636 -5.30436098 11.62924059 -8 12 C-10.00864359 14.3726974 -10.00864359 14.3726974 -11 17 C-11.99 17 -12.98 17 -14 17 C-14 14.03 -14 11.06 -14 8 C-13.34 7.67 -12.68 7.34 -12 7 C-12 4.36 -12 1.72 -12 -1 C-7.33430617 -2.11087948 -4.37515746 -2.04174015 0 0 Z " fill="#EFECEC" transform="translate(222,258)"/>
<path d="M0 0 C-0.33 0.33 -0.66 0.66 -1 1 C-1.23481693 3.18292774 -1.41363323 5.37203174 -1.5625 7.5625 C-1.706875 9.686875 -1.85125 11.81125 -2 14 C-6.95 14 -11.9 14 -17 14 C-17 10.37 -17 6.74 -17 3 C-17.99 2.67 -18.98 2.34 -20 2 C-17.04287371 1.47130166 -14.0846444 0.9517326 -11.125 0.4375 C-10.28324219 0.28603516 -9.44148438 0.13457031 -8.57421875 -0.02148438 C-7.76855469 -0.16005859 -6.96289062 -0.29863281 -6.1328125 -0.44140625 C-5.38918457 -0.57232666 -4.64555664 -0.70324707 -3.87939453 -0.83813477 C-2 -1 -2 -1 0 0 Z " fill="#EFEDED" transform="translate(137,346)"/>
<path d="M0 0 C2.0859375 0.41015625 2.0859375 0.41015625 4 1 C4.02692484 3.29160319 4.04636124 5.58329546 4.0625 7.875 C4.07410156 9.15117187 4.08570313 10.42734375 4.09765625 11.7421875 C4 15 4 15 3 17 C0.11788698 17.96070434 -1.69850044 18.10581883 -4.6875 18.0625 C-6.8221875 18.0315625 -6.8221875 18.0315625 -9 18 C-9 13.05 -9 8.1 -9 3 C-7.02 3 -5.04 3 -3 3 C-1.9805881 2.01979625 -0.97753644 1.02196992 0 0 Z " fill="#EFE6E5" transform="translate(174,267)"/>
<path d="M0 0 C3.3 0 6.6 0 10 0 C9.67 1.32 9.34 2.64 9 4 C8.34 4 7.68 4 7 4 C7 4.66 7 5.32 7 6 C10.3 6 13.6 6 17 6 C16.01 6.495 16.01 6.495 15 7 C15 9.64 15 12.28 15 15 C10.05 15 5.1 15 0 15 C0 10.05 0 5.1 0 0 Z " fill="#FEFEFE" transform="translate(165,195)"/>
<path d="M0 0 C6.1424535 6.1424535 7.28832061 8.8265875 7.375 17.3125 C7.31235545 23.71477349 6.48355244 27.66581032 3 33 C2.01 33 1.02 33 0 33 C0 22.11 0 11.22 0 0 Z " fill="#FCF3F2" transform="translate(150,258)"/>
<path d="M0 0 C1.125 3.75 1.125 3.75 0 6 C2.97 6 5.94 6 9 6 C9 10.95 9 15.9 9 21 C4.71 21 0.42 21 -4 21 C-3.39700836 13.76410027 -1.8849413 7.00629124 0 0 Z " fill="#FEFDFD" transform="translate(96,264)"/>
<path d="M0 0 C5.94 0 11.88 0 18 0 C19.71995232 4.2998808 20.33011541 6.84008378 20.625 11.3125 C20.69976562 12.38113281 20.77453125 13.44976562 20.8515625 14.55078125 C20.90054688 15.35902344 20.94953125 16.16726563 21 17 C20.67 16.01 20.34 15.02 20 14 C17.03 14 14.06 14 11 14 C10.67 15.32 10.34 16.64 10 18 C9.67 15.03 9.34 12.06 9 9 C8.34 9 7.68 9 7 9 C7 6.36 7 3.72 7 1 C4.69 1.33 2.38 1.66 0 2 C0 1.34 0 0.68 0 0 Z " fill="#FEFCFB" transform="translate(98,256)"/>
<path d="M0 0 C0.33 0 0.66 0 1 0 C1 3.63 1 7.26 1 11 C-1.64 11 -4.28 11 -7 11 C-7 11.99 -7 12.98 -7 14 C-9.64 14 -12.28 14 -15 14 C-15 9.71 -15 5.42 -15 1 C-14.00097656 1.01160156 -13.00195312 1.02320313 -11.97265625 1.03515625 C-10.68230469 1.04417969 -9.39195312 1.05320312 -8.0625 1.0625 C-6.13083984 1.07990234 -6.13083984 1.07990234 -4.16015625 1.09765625 C-1.13701597 1.36532549 -1.13701597 1.36532549 0 0 Z " fill="#EFEBEA" transform="translate(255,256)"/>
<path d="M0 0 C0.33 0 0.66 0 1 0 C1 9.24 1 18.48 1 28 C0.67 28 0.34 28 0 28 C0 25.69 0 23.38 0 21 C-3.3 21 -6.6 21 -10 21 C-10 16.05 -10 11.1 -10 6 C-6.7 6 -3.4 6 0 6 C0 4.02 0 2.04 0 0 Z " fill="#FFFFFF" transform="translate(100,54)"/>
<path d="M0 0 C8.75 -0.125 8.75 -0.125 11 1 C11.6328125 3.14453125 11.6328125 3.14453125 12.125 5.8125 C12.29257813 6.68519531 12.46015625 7.55789062 12.6328125 8.45703125 C13 11 13 11 13 15 C8.71 15 4.42 15 0 15 C0 10.05 0 5.1 0 0 Z " fill="#EFEDED" transform="translate(180,105)"/>
<path d="M0 0 C3.96 0 7.92 0 12 0 C13.38766322 6.05525768 12.49118146 9.32010626 10 15 C6.7 15 3.4 15 0 15 C0 10.05 0 5.1 0 0 Z " fill="#EFEBEB" transform="translate(90,45)"/>
<path d="M0 0 C4.95 0 9.9 0 15 0 C15 4.62 15 9.24 15 14 C10.17151132 13.19525189 7.73248296 12.60225453 3.625 10.4375 C2.75101563 9.98246094 1.87703125 9.52742187 0.9765625 9.05859375 C0.32429687 8.70925781 -0.32796875 8.35992187 -1 8 C-0.67 5.36 -0.34 2.72 0 0 Z " fill="#EFECEC" transform="translate(195,150)"/>
<path d="M0 0 C3.3 0 6.6 0 10 0 C10.33 1.65 10.66 3.3 11 5 C11.33 5 11.66 5 12 5 C13.125 12.75 13.125 12.75 12 15 C8.04 15 4.08 15 0 15 C0 10.05 0 5.1 0 0 Z " fill="#EFEDED" transform="translate(90,75)"/>
<path d="M0 0 C0.81487171 2.24916619 1.62696918 4.49926978 2.4375 6.75 C2.66759766 7.38421875 2.89769531 8.0184375 3.13476562 8.671875 C4.24244769 11.75412076 5.29661036 14.79836438 6 18 C5.34 17.67 4.68 17.34 4 17 C2.46331135 16.77532169 0.92031946 16.59203195 -0.625 16.4375 C-1.44226563 16.35371094 -2.25953125 16.26992187 -3.1015625 16.18359375 C-4.04128906 16.09271484 -4.04128906 16.09271484 -5 16 C-5.33 16.66 -5.66 17.32 -6 18 C-7.51953125 16.94921875 -7.51953125 16.94921875 -9 15 C-9.07421875 11.64453125 -9.07421875 11.64453125 -8.6875 7.8125 C-8.56761719 6.54019531 -8.44773438 5.26789063 -8.32421875 3.95703125 C-8.21722656 2.98121094 -8.11023438 2.00539062 -8 1 C-2.25 0 -2.25 0 0 0 Z " fill="#FDFAFA" transform="translate(248,179)"/>
<path d="M0 0 C4.95 0 9.9 0 15 0 C15 3.63 15 7.26 15 11 C10.05 11 5.1 11 0 11 C0 7.37 0 3.74 0 0 Z " fill="#FFFFFF" transform="translate(105,349)"/>
<path d="M0 0 C4 1 4 1 6 3 C7.65 3 9.3 3 11 3 C11 7.95 11 12.9 11 18 C4 18 4 18 0 17 C0 11.39 0 5.78 0 0 Z " fill="#EFE7E7" transform="translate(139,267)"/>
<path d="M0 0 C3.96 0 7.92 0 12 0 C11.44915905 5.8756368 10.55242359 11.30778017 9 17 C8.34 16.34 7.68 15.68 7 15 C4.69 15 2.38 15 0 15 C0 10.05 0 5.1 0 0 Z " fill="#EFECEC" transform="translate(240,135)"/>
<path d="M0 0 C0.33 0 0.66 0 1 0 C1 9.57 1 19.14 1 29 C4.96 29 8.92 29 13 29 C13 32.3 13 35.6 13 39 C8.71 39 4.42 39 0 39 C0 26.13 0 13.26 0 0 Z " fill="#F9E0DE" transform="translate(195,256)"/>
<path d="M0 0 C4.62 0 9.24 0 14 0 C14 3.82997587 12.76190045 5.8314051 10.9375 9.1875 C10.08478516 10.81751953 10.08478516 10.81751953 9.21484375 12.48046875 C8.48394531 13.31191406 7.75304687 14.14335938 7 15 C4.69 15 2.38 15 0 15 C0 10.05 0 5.1 0 0 Z " fill="#F0ECEC" transform="translate(195,30)"/>
<path d="M0 0 C6.93 0 13.86 0 21 0 C19.02 0.99 19.02 0.99 17 2 C17 4.97 17 7.94 17 11 C12.05 11 7.1 11 2 11 C2 7.7 2 4.4 2 1 C1.34 0.67 0.68 0.34 0 0 Z " fill="#FDF9F9" transform="translate(133,139)"/>
<path d="M0 0 C2.31243792 -0.02685412 4.6249627 -0.04632841 6.9375 -0.0625 C8.22527344 -0.07410156 9.51304687 -0.08570313 10.83984375 -0.09765625 C14 0 14 0 15 1 C15.14257189 4.33618231 15.04228157 7.65975606 15 11 C10.05 11 5.1 11 0 11 C0 7.37 0 3.74 0 0 Z " fill="#EFEDED" transform="translate(210,139)"/>
<path d="M0 0 C0 3.96 0 7.92 0 12 C-4.95 12 -9.9 12 -15 12 C-15 9.03 -15 6.06 -15 3 C-13.02 2.67 -11.04 2.34 -9 2 C-9 1.67 -9 1.34 -9 1 C-5.846632 0.29925156 -3.27275026 0 0 0 Z " fill="#EFEDED" transform="translate(255,348)"/>
<path d="M0 0 C3.3 0 6.6 0 10 0 C10.8118274 3.24730962 11.09519671 4.93711488 10.87890625 8.109375 C10.83056641 8.86347656 10.78222656 9.61757812 10.73242188 10.39453125 C10.64831055 11.56048828 10.64831055 11.56048828 10.5625 12.75 C10.51029297 13.54277344 10.45808594 14.33554688 10.40429688 15.15234375 C10.27510676 17.10193997 10.13830035 19.05102886 10 21 C9.67 21 9.34 21 9 21 C8.67 19.02 8.34 17.04 8 15 C5.36 15 2.72 15 0 15 C0 10.05 0 5.1 0 0 Z " fill="#F0ECEC" transform="translate(180,75)"/>
<path d="M0 0 C2.625 0.375 2.625 0.375 5 1 C4.95117188 4.02734375 4.95117188 4.02734375 4.90234375 7.0546875 C4.87350758 9.08185404 4.87350758 9.08185404 6 11 C5.67 11.66 5.34 12.32 5 13 C0.38 13 -4.24 13 -9 13 C-8.93489583 10.98177083 -8.86979167 8.96354167 -8.8046875 6.9453125 C-8.81668311 4.76136355 -8.81668311 4.76136355 -11 3 C-10.37351563 2.95101562 -9.74703125 2.90203125 -9.1015625 2.8515625 C-8.28429687 2.77679688 -7.46703125 2.70203125 -6.625 2.625 C-5.81289062 2.55539063 -5.00078125 2.48578125 -4.1640625 2.4140625 C-1.79665809 2.17107412 -1.79665809 2.17107412 0 0 Z " fill="#F0EBEA" transform="translate(189,197)"/>
<path d="M0 0 C0 2.64 0 5.28 0 8 C1.32 7.67 2.64 7.34 4 7 C3.67 7.66 3.34 8.32 3 9 C-3.11464781 11.03821594 -9.09608409 10.28927352 -15 8 C-16.09658936 4.71023192 -15.79953138 3.28696233 -15 0 C-9.76528314 -0.75612577 -5.22745859 -1.2063366 0 0 Z " fill="#FEFBFB" transform="translate(180,285)"/>
<path d="M0 0 C3.3 0 6.6 0 10 0 C10 4.95 10 9.9 10 15 C6.7 15 3.4 15 0 15 C0 10.05 0 5.1 0 0 Z " fill="#EFEEEE" transform="translate(45,300)"/>
<path d="M0 0 C0.99 0.495 0.99 0.495 2 1 C1.67 4.96 1.34 8.92 1 13 C3.31 13 5.62 13 8 13 C8 17.95 8 22.9 8 28 C5.69 28 3.38 28 1 28 C1 30.64 1 33.28 1 36 C2.98 36 4.96 36 7 36 C7 36.33 7 36.66 7 37 C4.69 37 2.38 37 0 37 C0 24.79 0 12.58 0 0 Z " fill="#FFFFFF" transform="translate(127,257)"/>
<path d="M0 0 C0.33 0 0.66 0 1 0 C1.96205088 6.37358711 2.10655578 12.55929529 2 19 C1.67 18.34 1.34 17.68 1 17 C-1.97 17 -4.94 17 -8 17 C-8 12.05 -8 7.1 -8 2 C-5.36 2 -2.72 2 0 2 C0 1.34 0 0.68 0 0 Z " fill="#FEFEFE" transform="translate(188,88)"/>
<path d="M0 0 C0.66 0.33 1.32 0.66 2 1 C3.99960012 1.039992 6.00047242 1.04346799 8 1 C8 3.64 8 6.28 8 9 C8.66 9 9.32 9 10 9 C10.66 13.62 11.32 18.24 12 23 C10.68 23 9.36 23 8 23 C8 20.03 8 17.06 8 14 C5.03 14 2.06 14 -1 14 C-1.14285714 4.42857143 -1.14285714 4.42857143 0 0 Z " fill="#F0EAEA" transform="translate(97,256)"/>
<path d="M0 0 C0.33 0 0.66 0 1 0 C1 4.29 1 8.58 1 13 C2.98 13 4.96 13 7 13 C7 17.95 7 22.9 7 28 C2.05 28.495 2.05 28.495 -3 29 C-2.86722656 27.99582031 -2.73445313 26.99164063 -2.59765625 25.95703125 C-1.47505721 17.31577742 -0.56604776 8.69926038 0 0 Z " fill="#FEFDFD" transform="translate(113,152)"/>
<path d="M0 0 C0.94875 0.04125 1.8975 0.0825 2.875 0.125 C3.25781159 5.35675837 2.09354707 8.50302694 -0.125 13.125 C-3.755 12.795 -7.385 12.465 -11.125 12.125 C-11.25 3.375 -11.25 3.375 -10.125 1.125 C-8.949375 1.434375 -8.949375 1.434375 -7.75 1.75 C-6.88375 1.87375 -6.0175 1.9975 -5.125 2.125 C-3.125 0.125 -3.125 0.125 0 0 Z " fill="#F0E5E4" transform="translate(176.125,182.875)"/>
<path d="M0 0 C2.97 0 5.94 0 9 0 C9 4.95 9 9.9 9 15 C5.04 15 1.08 15 -3 15 C-2.505 14.195625 -2.01 13.39125 -1.5 12.5625 C0.40941203 8.02764644 0.22213538 4.88697827 0 0 Z " fill="#F0EDED" transform="translate(156,195)"/>
<path d="M0 0 C2.97 0 5.94 0 9 0 C9 4.95 9 9.9 9 15 C5.7 15 2.4 15 -1 15 C-1 11.90522086 -0.76520744 8.89553654 -0.5 5.8125 C-0.4071875 4.72582031 -0.314375 3.63914062 -0.21875 2.51953125 C-0.11046875 1.27236328 -0.11046875 1.27236328 0 0 Z " fill="#EFEDED" transform="translate(291,300)"/>
<path d="M0 0 C0 3.3 0 6.6 0 10 C-4.95 10 -9.9 10 -15 10 C-15 4 -15 4 -13 1 C-10.9765625 0.234375 -10.9765625 0.234375 -8.625 -0.25 C-7.85414063 -0.42015625 -7.08328125 -0.5903125 -6.2890625 -0.765625 C-4 -1 -4 -1 0 0 Z " fill="#EFEDED" transform="translate(180,335)"/>
<path d="M0 0 C5.61 0 11.22 0 17 0 C16.01 0.495 16.01 0.495 15 1 C15 3.64 15 6.28 15 9 C10.05 9 5.1 9 0 9 C0 6.03 0 3.06 0 0 Z " fill="#FDF8F8" transform="translate(75,201)"/>
<path d="M0 0 C2.97 0.33 5.94 0.66 9 1 C9 5.29 9 9.58 9 14 C6.69 14 4.38 14 2 14 C2.01160156 13.14535156 2.02320313 12.29070312 2.03515625 11.41015625 C2.04417969 10.30542969 2.05320313 9.20070313 2.0625 8.0625 C2.07410156 6.96035156 2.08570313 5.85820312 2.09765625 4.72265625 C2.31262571 2.08552366 2.31262571 2.08552366 1 1 C1 13.21 1 25.42 1 38 C0.67 38 0.34 38 0 38 C0 25.46 0 12.92 0 0 Z " fill="#EED8D6" transform="translate(126,256)"/>
<path d="M0 0 C4.95 0 9.9 0 15 0 C13.04169432 4.8957642 12.53133329 5.77056817 8.5625 8.625 C5.83244087 10.6129508 3.31917202 12.53914223 1 15 C0 14 0 14 -0.09765625 10.83984375 C-0.04882812 5.41992188 -0.04882812 5.41992188 0 0 Z " fill="#F0EBEA" transform="translate(210,15)"/>
<path d="M0 0 C4.29 0 8.58 0 13 0 C13 0.33 13 0.66 13 1 C15.475 1.495 15.475 1.495 18 2 C18 2.33 18 2.66 18 3 C16.02 3.33 14.04 3.66 12 4 C11.34 5.98 10.68 7.96 10 10 C6.04 10 2.08 10 -2 10 C-1.34 6.7 -0.68 3.4 0 0 Z " fill="#F2E7E6" transform="translate(92,285)"/>
<path d="M0 0 C0.33 1.32 0.66 2.64 1 4 C2.65 4 4.3 4 6 4 C6 8.95 6 13.9 6 19 C2.7 19 -0.6 19 -4 19 C-3.26309887 12.51527007 -1.64681249 6.30760257 0 0 Z " fill="#FEFDFD" transform="translate(174,101)"/>
<path d="M0 0 C3.3 0 6.6 0 10 0 C11.36420006 4.09260018 9.7664515 6.47012659 8.0625 10.1875 C7.77181641 10.84169922 7.48113281 11.49589844 7.18164062 12.16992188 C6.46304657 13.78381344 5.7326412 15.39243655 5 17 C4.67 16.34 4.34 15.68 4 15 C2.68 15 1.36 15 0 15 C0 10.05 0 5.1 0 0 Z " fill="#F0EAEA" transform="translate(60,255)"/>
<path d="M0 0 C1.98 0 3.96 0 6 0 C6 4.95 6 9.9 6 15 C2.37 15 -1.26 15 -5 15 C-4.4140625 8.84765625 -4.4140625 8.84765625 -4 7 C-3.34 6.67 -2.68 6.34 -2 6 C-1.27306096 4.02111039 -0.60183749 2.02045442 0 0 Z " fill="#EFEDED" transform="translate(264,90)"/>
<path d="M0 0 C3.3 0 6.6 0 10 0 C9.5253725 2.3134359 9.04517721 4.62573019 8.5625 6.9375 C8.29566406 8.22527344 8.02882813 9.51304688 7.75390625 10.83984375 C7 14 7 14 6 15 C4.02 15 2.04 15 0 15 C0 10.05 0 5.1 0 0 Z " fill="#EFEEEE" transform="translate(30,105)"/>
<path d="M0 0 C2.64 0 5.28 0 8 0 C8.02703381 1.93742341 8.04641125 3.87495479 8.0625 5.8125 C8.07410156 6.89144531 8.08570313 7.97039062 8.09765625 9.08203125 C8 12 8 12 7 15 C4.69 15 2.38 15 0 15 C0 10.05 0 5.1 0 0 Z " fill="#FEFEFE" transform="translate(240,270)"/>
<path d="M0 0 C7 2.33333333 7 2.33333333 10 7 C11.1735237 10.06921583 11.07723233 10.768303 10 14 C6.7 14 3.4 14 0 14 C0 9.38 0 4.76 0 0 Z " fill="#F0EEED" transform="translate(180,256)"/>
<path d="M0 0 C-0.33 5.28 -0.66 10.56 -1 16 C-3.31 16 -5.62 16 -8 16 C-8 11.05 -8 6.1 -8 1 C-1 0 -1 0 0 0 Z " fill="#FEFEFE" transform="translate(248,149)"/>
<path d="M0 0 C4.95 0 9.9 0 15 0 C15 2.64 15 5.28 15 8 C12.66705225 8.04241723 10.33297433 8.04092937 8 8 C7.67 7.67 7.34 7.34 7 7 C4.66055264 7.28730055 2.3260857 7.61936779 0 8 C0 5.36 0 2.72 0 0 Z " fill="#EFEBEB" transform="translate(285,90)"/>
<path d="M0 0 C2.31 0 4.62 0 7 0 C7.33 4.62 7.66 9.24 8 14 C6 15 6 15 0 15 C0 10.05 0 5.1 0 0 Z " fill="#F0EDEC" transform="translate(240,165)"/>
<path d="M0 0 C1.65 0 3.3 0 5 0 C5 4.95 5 9.9 5 15 C1.7 15.33 -1.6 15.66 -5 16 C-3.25 7.375 -3.25 7.375 -1 4 C-0.36707617 1.88719655 -0.36707617 1.88719655 0 0 Z " fill="#F0EDED" transform="translate(325,150)"/>
<path d="M0 0 C2.31 0 4.62 0 7 0 C7 4.95 7 9.9 7 15 C4.36 15 1.72 15 -1 15 C-1.02685412 12.68756208 -1.04632841 10.3750373 -1.0625 8.0625 C-1.07410156 6.77472656 -1.08570312 5.48695313 -1.09765625 4.16015625 C-1 1 -1 1 0 0 Z " fill="#EEE2E1" transform="translate(113,150)"/>
<path d="M0 0 C4.95 0 9.9 0 15 0 C15 3.63 15 7.26 15 11 C11.09062551 9.43625021 7.43536201 7.76952365 3.6875 5.875 C2.61886719 5.33617188 1.55023438 4.79734375 0.44921875 4.2421875 C-0.76314453 3.62730469 -0.76314453 3.62730469 -2 3 C-1.34 2.67 -0.68 2.34 0 2 C0 1.34 0 0.68 0 0 Z " fill="#F0ECEC" transform="translate(75,90)"/>
<path d="M0 0 C-0.99 0.33 -1.98 0.66 -3 1 C-3.33 2.98 -3.66 4.96 -4 7 C-7.45826342 7.05789006 -10.91640293 7.09355821 -14.375 7.125 C-15.35984375 7.14175781 -16.3446875 7.15851563 -17.359375 7.17578125 C-18.30039063 7.18222656 -19.24140625 7.18867188 -20.2109375 7.1953125 C-21.51490479 7.21102295 -21.51490479 7.21102295 -22.84521484 7.22705078 C-25 7 -25 7 -27 5 C-23.28650154 4.0039314 -19.57222737 3.01117869 -15.85546875 2.02734375 C-13.68775613 1.44972631 -11.52187795 0.86470917 -9.36328125 0.25390625 C-5.80404565 -0.72912073 -3.52216453 -1.06662499 0 0 Z " fill="#FBF7F6" transform="translate(169,338)"/>
<path d="M0 0 C2.64 0 5.28 0 8 0 C8 4.95 8 9.9 8 15 C6.68 15 5.36 15 4 15 C3.67 15.66 3.34 16.32 3 17 C1.82877141 11.34853777 0.74660712 5.72398793 0 0 Z " fill="#F0EEEE" transform="translate(262,30)"/>
<path d="M0 0 C4.29 0 8.58 0 13 0 C13 3.63 13 7.26 13 11 C9.3012364 11 8.64226148 10.15647938 5.9375 7.75 C5.24527344 7.14671875 4.55304688 6.5434375 3.83984375 5.921875 C2 4 2 4 0 0 Z " fill="#F0EDED" transform="translate(212,165)"/>
<path d="M0 0 C4.95 0 9.9 0 15 0 C15 2.31 15 4.62 15 7 C14.45214844 6.86722656 13.90429688 6.73445312 13.33984375 6.59765625 C5.58222386 4.86953605 -2.08044291 4.40125756 -10 4 C-10 3.67 -10 3.34 -10 3 C-6.7 3 -3.4 3 0 3 C0 2.01 0 1.02 0 0 Z " fill="#FEFDFD" transform="translate(180,150)"/>
<path d="M0 0 C1.98 0 3.96 0 6 0 C5.67 6.93 5.34 13.86 5 21 C4.67 21 4.34 21 4 21 C4 19.02 4 17.04 4 15 C2.68 15 1.36 15 0 15 C0 10.05 0 5.1 0 0 Z " fill="#FEFDFD" transform="translate(30,120)"/>
<path d="M0 0 C1.98 0 3.96 0 6 0 C6 4.95 6 9.9 6 15 C4.68 15 3.36 15 2 15 C-1.54076539 5.32612313 -1.54076539 5.32612313 -1 1 C-0.67 0.67 -0.34 0.34 0 0 Z " fill="#F0EDED" transform="translate(324,120)"/>
<path d="M0 0 C1.32 0 2.64 0 4 0 C4.33 1.65 4.66 3.3 5 5 C5.33 5 5.66 5 6 5 C6.19412181 6.47831221 6.38012131 7.95769316 6.5625 9.4375 C6.66691406 10.26121094 6.77132812 11.08492187 6.87890625 11.93359375 C6.91886719 12.61550781 6.95882812 13.29742187 7 14 C6.67 14.33 6.34 14.66 6 15 C4.02 15 2.04 15 0 15 C0 10.05 0 5.1 0 0 Z " fill="#F0EDED" transform="translate(30,135)"/>
<path d="M0 0 C2.31 0 4.62 0 7 0 C7 4.95 7 9.9 7 15 C5.68 15 4.36 15 3 15 C2.51171875 12.98177083 2.0234375 10.96354167 1.53515625 8.9453125 C1.05153008 6.9414343 1.05153008 6.9414343 0 5 C-0.0396713 3.33380554 -0.04384447 1.66608987 0 0 Z " fill="#EFEDED" transform="translate(173,60)"/>
<path d="M0 0 C2.0625 0.4375 2.0625 0.4375 4 1 C4.02692484 3.29160319 4.04636124 5.58329546 4.0625 7.875 C4.07410156 9.15117187 4.08570313 10.42734375 4.09765625 11.7421875 C4 15 4 15 3 17 C1.68 16.67 0.36 16.34 -1 16 C-1.02685095 13.52076199 -1.04676547 11.0418116 -1.0625 8.5625 C-1.07506836 7.50192383 -1.07506836 7.50192383 -1.08789062 6.41992188 C-1.09653588 4.61306441 -1.05220011 2.80612397 -1 1 C-0.67 0.67 -0.34 0.34 0 0 Z " fill="#D11203" transform="translate(174,267)"/>
<path d="M0 0 C0.33 0 0.66 0 1 0 C1.33 2.97 1.66 5.94 2 9 C3.32 9 4.64 9 6 9 C6 13.95 6 18.9 6 24 C4.68 24.33 3.36 24.66 2 25 C1.66178803 22.14633646 1.3293022 19.29219404 1 16.4375 C0.90460938 15.63763672 0.80921875 14.83777344 0.7109375 14.01367188 C0.17285824 9.30547833 -0.10176703 4.73852735 0 0 Z " fill="#FEFEFE" transform="translate(174,66)"/>
<path d="M0 0 C0.33 0 0.66 0 1 0 C1 4.29 1 8.58 1 13 C-3.29 13 -7.58 13 -12 13 C-12 12.67 -12 12.34 -12 12 C-8.04 12 -4.08 12 0 12 C-1.12534105 10.64381501 -1.12534105 10.64381501 -4.0625 10.9375 C-5.5165625 10.9684375 -5.5165625 10.9684375 -7 11 C-7 8.36 -7 5.72 -7 3 C-4.69 3 -2.38 3 0 3 C0 2.01 0 1.02 0 0 Z " fill="#F0E1E0" transform="translate(247,282)"/>
<path d="M0 0 C0.33 0 0.66 0 1 0 C1 4.95 1 9.9 1 15 C2.32 15 3.64 15 5 15 C5 17.64 5 20.28 5 23 C6.98 23 8.96 23 11 23 C11 21.35 11 19.7 11 18 C11.33 18 11.66 18 12 18 C12 19.98 12 21.96 12 24 C8.04 24 4.08 24 0 24 C0 16.08 0 8.16 0 0 Z " fill="#FFFFFF" transform="translate(235,270)"/>
<path d="M0 0 C3.63 0 7.26 0 11 0 C11 3.63 11 7.26 11 11 C6.84641746 7.56530675 3.21124658 4.36729534 0 0 Z " fill="#EFEEEE" transform="translate(229,180)"/>
<path d="M0 0 C1.32 0 2.64 0 4 0 C4 4.95 4 9.9 4 15 C3.34 15 2.68 15 2 15 C2 19.29 2 23.58 2 28 C1.67 28 1.34 28 1 28 C0.67 18.76 0.34 9.52 0 0 Z " fill="#FEFEFE" transform="translate(266,45)"/>
<path d="M0 0 C1.32 0.33 2.64 0.66 4 1 C4.02692484 3.29160319 4.04636124 5.58329546 4.0625 7.875 C4.07410156 9.15117187 4.08570313 10.42734375 4.09765625 11.7421875 C4 15 4 15 3 17 C2.01 17 1.02 17 0 17 C0 11.39 0 5.78 0 0 Z " fill="#D11203" transform="translate(139,267)"/>
<path d="M0 0 C1.95803507 -0.05389087 3.91648909 -0.09274217 5.875 -0.125 C7.51082031 -0.15980469 7.51082031 -0.15980469 9.1796875 -0.1953125 C12 0 12 0 14 2 C13.39671875 2.25394531 12.7934375 2.50789063 12.171875 2.76953125 C6.24324364 5.29568376 6.24324364 5.29568376 1 9 C0 8 0 8 -0.09765625 6.15234375 C-0.06510417 4.1015625 -0.03255208 2.05078125 0 0 Z " fill="#F1E8E7" transform="translate(45,90)"/>
<path d="M0 0 C1.98 0 3.96 0 6 0 C6 4.62 6 9.24 6 14 C5.01 14.495 5.01 14.495 4 15 C3.32243118 13.44219668 2.65840543 11.87849904 2 10.3125 C1.62875 9.44238281 1.2575 8.57226562 0.875 7.67578125 C-0.01870488 4.9427998 -0.16449676 2.85299066 0 0 Z " fill="#F1EBEA" transform="translate(279,255)"/>
<path d="M0 0 C0.33 0.66 0.66 1.32 1 2 C-0.28655265 3.81613362 -1.57939995 5.62780954 -2.875 7.4375 C-3.95394531 8.95150391 -3.95394531 8.95150391 -5.0546875 10.49609375 C-7 13 -7 13 -9 14 C-8.67 9.71 -8.34 5.42 -8 1 C-5.36 0.67 -2.72 0.34 0 0 Z " fill="#FDF7F7" transform="translate(98,209)"/>
<path d="M0 0 C1.32 0 2.64 0 4 0 C4 4.95 4 9.9 4 15 C2.68 15 1.36 15 0 15 C0 10.05 0 5.1 0 0 Z " fill="#EFEEEE" transform="translate(236,270)"/>
<path d="M0 0 C2.97 0 5.94 0 9 0 C8.66896829 3.06204329 8.39949096 4.60050904 6.1875 6.8125 C4 8 4 8 0 8 C0 5.36 0 2.72 0 0 Z " fill="#EFEDED" transform="translate(180,285)"/>
<path d="M0 0 C2.31 0 4.62 0 7 0 C7 2.64 7 5.28 7 8 C4.69 8 2.38 8 0 8 C0 5.36 0 2.72 0 0 Z " fill="#EFEEEE" transform="translate(128,285)"/>
<path d="M0 0 C3.48872415 1.16290805 4.09976864 2.13967609 6.1875 5.0625 C6.71730469 5.79597656 7.24710938 6.52945313 7.79296875 7.28515625 C8.19128906 7.85105469 8.58960938 8.41695312 9 9 C8 10 8 10 6.15234375 10.09765625 C4.1015625 10.06510417 2.05078125 10.03255208 0 10 C0 6.7 0 3.4 0 0 Z " fill="#F1E8E7" transform="translate(195,125)"/>
<path d="M0 0 C2.31 0 4.62 0 7 0 C7 4.29 7 8.58 7 13 C0 4.25 0 4.25 0 0 Z " fill="#FDF8F8" transform="translate(263,225)"/>
<path d="M0 0 C4.7641112 4.27548441 4.7641112 4.27548441 5.875 7.6875 C6 10 6 10 5 12 C3.35 12 1.7 12 0 12 C0 8.04 0 4.08 0 0 Z " fill="#F1EAE9" transform="translate(150,258)"/>
<path d="M0 0 C4.95 0 9.9 0 15 0 C15 0.99 15 1.98 15 3 C14.06027344 3.09087891 14.06027344 3.09087891 13.1015625 3.18359375 C12.28429687 3.26738281 11.46703125 3.35117188 10.625 3.4375 C9.81289062 3.51871094 9.00078125 3.59992188 8.1640625 3.68359375 C5.95727195 3.89090114 5.95727195 3.89090114 4 5 C1.875 4.5625 1.875 4.5625 0 4 C0 2.68 0 1.36 0 0 Z " fill="#EFEDED" transform="translate(165,150)"/>
<path d="M0 0 C0.99 0 1.98 0 3 0 C3.33 4.95 3.66 9.9 4 15 C2.68 15 1.36 15 0 15 C0 10.05 0 5.1 0 0 Z " fill="#EFEEEE" transform="translate(135,270)"/>
<path d="M0 0 C0.66 0.33 1.32 0.66 2 1 C1.34 1.66 0.68 2.32 0 3 C-0.46162427 5.43252661 -0.46162427 5.43252661 -0.625 8.125 C-0.69976562 9.03507812 -0.77453125 9.94515625 -0.8515625 10.8828125 C-0.90054688 11.58148438 -0.94953125 12.28015625 -1 13 C-2.32 13 -3.64 13 -5 13 C-5.6875 11.375 -5.6875 11.375 -6 9 C-4.52359755 5.38281401 -2.98093122 2.5550839 0 0 Z " fill="#F3EBEB" transform="translate(166,257)"/>
<path d="M0 0 C2.475 0.495 2.475 0.495 5 1 C5.125 3.875 5.125 3.875 5 7 C4.34 7.66 3.68 8.32 3 9 C2.01 9 1.02 9 0 9 C0 6.03 0 3.06 0 0 Z " fill="#D93427" transform="translate(208,266)"/>
<path d="M0 0 C2.01822917 0.06510417 4.03645833 0.13020833 6.0546875 0.1953125 C6.0546875 2.1753125 6.0546875 4.1553125 6.0546875 6.1953125 C1.80823685 6.1953125 -0.33056022 4.37780444 -3.9453125 2.1953125 C-1.9453125 0.1953125 -1.9453125 0.1953125 0 0 Z " fill="#F1E9E9" transform="translate(248.9453125,14.8046875)"/>
<path d="M0 0 C2.97 0 5.94 0 9 0 C5.87378374 3.39417765 3.43458973 5.6062718 -1 7 C-0.67 4.69 -0.34 2.38 0 0 Z " fill="#FDF8F8" transform="translate(135,165)"/>
<path d="M0 0 C0.33 0.99 0.66 1.98 1 3 C-0.6875 5.0625 -0.6875 5.0625 -3 7 C-5.75 6.75 -5.75 6.75 -8 6 C-6.8125 3.5625 -6.8125 3.5625 -5 1 C-2.3125 0.1875 -2.3125 0.1875 0 0 Z " fill="#FCF1F0" transform="translate(179,224)"/>
<path d="M0 0 C0.66 0 1.32 0 2 0 C2 4.95 2 9.9 2 15 C0.68 14.67 -0.64 14.34 -2 14 C-1.67 13.01 -1.34 12.02 -1 11 C-0.77820215 9.10787263 -0.59385985 7.21115528 -0.4375 5.3125 C-0.35371094 4.31863281 -0.26992188 3.32476562 -0.18359375 2.30078125 C-0.12300781 1.54152344 -0.06242187 0.78226563 0 0 Z " fill="#EFEBEB" transform="translate(268,60)"/>
<path d="M0 0 C0 3.77910478 -0.99703962 4.46106101 -3.5 7.1875 C-4.47453125 8.26064453 -4.47453125 8.26064453 -5.46875 9.35546875 C-5.9740625 9.89816406 -6.479375 10.44085938 -7 11 C-8.43088528 8.13822943 -7.59991697 6.06624227 -7 3 C-5.5459375 2.5359375 -5.5459375 2.5359375 -4.0625 2.0625 C-1.15934208 1.30476658 -1.15934208 1.30476658 0 0 Z " fill="#FBF4F4" transform="translate(112,192)"/>
<path d="M0 0 C1.65 0 3.3 0 5 0 C5.33 0.66 5.66 1.32 6 2 C2.25 6.875 2.25 6.875 0 8 C0 5.36 0 2.72 0 0 Z " fill="#F1E8E8" transform="translate(255,120)"/>
<path d="M0 0 C0.66 0.33 1.32 0.66 2 1 C1.34 2.98 0.68 4.96 0 7 C-1.98 7 -3.96 7 -6 7 C-6.33 6.34 -6.66 5.68 -7 5 C-4.69 3.35 -2.38 1.7 0 0 Z " fill="#F4EAE9" transform="translate(270,338)"/>
<path d="M0 0 C0.99 0 1.98 0 3 0 C3 2.64 3 5.28 3 8 C1.68 8 0.36 8 -1 8 C-1.93065133 5.39417629 -2.14917407 4.35801776 -1.0625 1.75 C-0.711875 1.1725 -0.36125 0.595 0 0 Z " fill="#F0E9E8" transform="translate(162,225)"/>
<path d="M0 0 C1.98 0 3.96 0 6 0 C6.12375 0.804375 6.2475 1.60875 6.375 2.4375 C6.684375 3.7059375 6.684375 3.7059375 7 5 C7.66 5.33 8.32 5.66 9 6 C8.67 6.66 8.34 7.32 8 8 C6.66102417 7.04956626 5.32894573 6.08940853 4 5.125 C3.2575 4.59132813 2.515 4.05765625 1.75 3.5078125 C1.1725 3.01023437 0.595 2.51265625 0 2 C0 1.34 0 0.68 0 0 Z " fill="#FCF3F3" transform="translate(144,15)"/>
<path d="M0 0 C-0.33 0.99 -0.66 1.98 -1 3 C-5.95 3 -10.9 3 -16 3 C-16 2.67 -16 2.34 -16 2 C-11.545 1.505 -11.545 1.505 -7 1 C-7 0.67 -7 0.34 -7 0 C-2.25 -1.125 -2.25 -1.125 0 0 Z " fill="#F2EAE9" transform="translate(286,207)"/>
<path d="M0 0 C2.86697492 1.28519565 4.97607712 2.57129254 7 5 C7 5.66 7 6.32 7 7 C5.02 7 3.04 7 1 7 C0.67 4.69 0.34 2.38 0 0 Z " fill="#FCF5F4" transform="translate(119,128)"/>
<path d="M0 0 C0.99 0 1.98 0 3 0 C3 1.98 3 3.96 3 6 C0.69 6.66 -1.62 7.32 -4 8 C-2.66666667 5.33333333 -1.33333333 2.66666667 0 0 Z " fill="#F3E8E8" transform="translate(252,114)"/>
<path d="M0 0 C2.1991413 4.39828259 2.51855059 7.18550592 3 12 C1.68 12 0.36 12 -1 12 C-0.67 8.04 -0.34 4.08 0 0 Z " fill="#D52315" transform="translate(106,267)"/>
<path d="M0 0 C1.98 0 3.96 0 6 0 C5.67 1.32 5.34 2.64 5 4 C3.35 4 1.7 4 0 4 C0 2.68 0 1.36 0 0 Z " fill="#F0EDED" transform="translate(189,225)"/>
<path d="M0 0 C1.65 0 3.3 0 5 0 C3.63016497 3.16115776 3.0109362 3.9927092 0 6 C0 4.02 0 2.04 0 0 Z " fill="#FAE2E0" transform="translate(120,180)"/>
<path d="M0 0 C1.32 0 2.64 0 4 0 C3.34 2.31 2.68 4.62 2 7 C1.34 6.67 0.68 6.34 0 6 C0 4.02 0 2.04 0 0 Z " fill="#EFE4E3" transform="translate(150,285)"/>
<path d="M0 0 C5.53846154 0.61538462 5.53846154 0.61538462 7.875 2.5625 C8.431875 3.2740625 8.431875 3.2740625 9 4 C6.36 3.67 3.72 3.34 1 3 C0.67 2.01 0.34 1.02 0 0 Z " fill="#FBF2F2" transform="translate(209,342)"/>
</svg>
